<?xml version="1.0" encoding="UTF-8" standalone="no"?>
<!DOCTYPE svg PUBLIC "-//W3C//DTD SVG 1.1//EN"
 "http://www.w3.org/Graphics/SVG/1.1/DTD/svg11.dtd">
<!-- Generated by graphviz version 2.38.0 (20140413.2041)
 -->
<!-- Title: G Pages: 1 -->
<svg width="330pt" height="270pt"
 viewBox="0.00 0.00 330.00 270.00" xmlns="http://www.w3.org/2000/svg" xmlns:xlink="http://www.w3.org/1999/xlink">
<g id="graph0" class="graph" transform="scale(1 1) rotate(0) translate(4 266)">
<title>G</title>
<polygon fill="white" stroke="none" points="-4,4 -4,-266 326,-266 326,4 -4,4"/>
<!-- 0 -->
<g id="node1" class="node"><title>0</title>
<path fill="cornflowerblue" stroke="black" d="M310,-262C310,-262 151,-262 151,-262 145,-262 139,-256 139,-250 139,-250 139,-238 139,-238 139,-232 145,-226 151,-226 151,-226 310,-226 310,-226 316,-226 322,-232 322,-238 322,-238 322,-250 322,-250 322,-256 316,-262 310,-262"/>
<text text-anchor="start" x="147" y="-246.4" font-family="Source Code Pro" font-size="7.00">0x402048 &#160;mov al, byte ptr [0x403041]</text>
<text text-anchor="start" x="147" y="-238.4" font-family="Source Code Pro" font-size="7.00">0x40204d &#160;inc al</text>
</g>
<!-- 1 -->
<g id="node2" class="node"><title>1</title>
<path fill="none" stroke="black" d="M220,-189C220,-189 61,-189 61,-189 55,-189 49,-183 49,-177 49,-177 49,-165 49,-165 49,-159 55,-153 61,-153 61,-153 220,-153 220,-153 226,-153 232,-159 232,-165 232,-165 232,-177 232,-177 232,-183 226,-189 220,-189"/>
<text text-anchor="start" x="57" y="-173.4" font-family="Source Code Pro" font-size="7.00">0x404563 &#160;mov byte ptr [0x403041], al</text>
<text text-anchor="start" x="57" y="-165.4" font-family="Source Code Pro" font-size="7.00">0x404568 &#160;cmp al, 0x5</text>
</g>
<!-- 0&#45;&gt;1 -->
<g id="edge1" class="edge"><title>0&#45;&gt;1</title>
<path fill="none" stroke="black" d="M208.714,-225.813C197.106,-216.656 182.661,-205.26 170.055,-195.316"/>
<polygon fill="black" stroke="black" points="172.105,-192.475 162.086,-189.029 167.769,-197.97 172.105,-192.475"/>
</g>
<!-- 2 -->
<g id="node3" class="node"><title>2</title>
<path fill="none" stroke="black" d="M171,-109C171,-109 12,-109 12,-109 6,-109 0,-103 0,-97 0,-97 0,-85 0,-85 0,-79 6,-73 12,-73 12,-73 171,-73 171,-73 177,-73 183,-79 183,-85 183,-85 183,-97 183,-97 183,-103 177,-109 171,-109"/>
<text text-anchor="start" x="8" y="-93.4" font-family="Source Code Pro" font-size="7.00">0x402058 &#160;xor eax, eax</text>
<text text-anchor="start" x="8" y="-85.4" font-family="Source Code Pro" font-size="7.00">0x40205a &#160;mov byte ptr [0x403041], al</text>
</g>
<!-- 1&#45;&gt;2 -->
<g id="edge2" class="edge"><title>1&#45;&gt;2</title>
<path fill="none" stroke="black" stroke-dasharray="5,2" d="M129.625,-152.689C123.218,-142.49 114.988,-129.389 107.815,-117.971"/>
<polygon fill="black" stroke="black" points="110.628,-115.868 102.344,-109.262 104.7,-119.592 110.628,-115.868"/>
<text text-anchor="middle" x="124" y="-129.4" font-family="Times,serif" font-size="7.00">zf=1</text>
</g>
<!-- 3 -->
<g id="node4" class="node"><title>3</title>
<path fill="gainsboro" stroke="black" d="M234.5,-36C234.5,-36 204.5,-36 204.5,-36 198.5,-36 192.5,-30 192.5,-24 192.5,-24 192.5,-12 192.5,-12 192.5,-6 198.5,-0 204.5,-0 204.5,-0 234.5,-0 234.5,-0 240.5,-0 246.5,-6 246.5,-12 246.5,-12 246.5,-24 246.5,-24 246.5,-30 240.5,-36 234.5,-36"/>
<text text-anchor="middle" x="219.5" y="-16.4" font-family="Source Code Pro" font-size="7.00">...</text>
</g>
<!-- 1&#45;&gt;3 -->
<g id="edge3" class="edge"><title>1&#45;&gt;3</title>
<path fill="none" stroke="black" stroke-dasharray="5,2" d="M157.934,-152.966C168.887,-141.432 182.582,-125.363 191.5,-109 202.351,-89.089 209.659,-64.3628 214.08,-45.8686"/>
<polygon fill="black" stroke="black" points="217.51,-46.5701 216.299,-36.0446 210.682,-45.0278 217.51,-46.5701"/>
<text text-anchor="middle" x="213" y="-89.4" font-family="Times,serif" font-size="7.00">zf=0</text>
</g>
<!-- 2&#45;&gt;3 -->
<g id="edge4" class="edge"><title>2&#45;&gt;3</title>
<path fill="none" stroke="black" d="M122.159,-72.9937C140.548,-62.7939 164.031,-49.7682 183.324,-39.0662"/>
<polygon fill="black" stroke="black" points="185.092,-42.0882 192.139,-34.1768 181.696,-35.9668 185.092,-42.0882"/>
</g>
<!-- 3&#45;&gt;0 -->
<g id="edge5" class="edge"><title>3&#45;&gt;0</title>
<path fill="none" stroke="black" stroke-dasharray="1,5" d="M224.118,-36.3369C231.744,-67.0432 245.639,-133.03 240.5,-189 239.694,-197.775 238.167,-207.252 236.544,-215.781"/>
<polygon fill="black" stroke="black" points="233.11,-215.108 234.559,-225.603 239.971,-216.494 233.11,-215.108"/>
</g>
</g>
</svg>
