<?xml version="1.0" encoding="UTF-8" standalone="no"?>
<!DOCTYPE svg PUBLIC "-//W3C//DTD SVG 1.1//EN"
 "http://www.w3.org/Graphics/SVG/1.1/DTD/svg11.dtd">
<!-- Generated by graphviz version 2.38.0 (20140413.2041)
 -->
<!-- Title: G Pages: 1 -->
<svg width="480pt" height="811pt"
 viewBox="0.00 0.00 480.00 811.00" xmlns="http://www.w3.org/2000/svg" xmlns:xlink="http://www.w3.org/1999/xlink">
<g id="graph0" class="graph" transform="scale(1 1) rotate(0) translate(4 807)">
<title>G</title>
<polygon fill="white" stroke="none" points="-4,4 -4,-807 476,-807 476,4 -4,4"/>
<!-- 0 -->
<g id="node1" class="node"><title>0</title>
<path fill="cornflowerblue" stroke="black" d="M433.5,-803C433.5,-803 163.5,-803 163.5,-803 157.5,-803 151.5,-797 151.5,-791 151.5,-791 151.5,-779 151.5,-779 151.5,-773 157.5,-767 163.5,-767 163.5,-767 433.5,-767 433.5,-767 439.5,-767 445.5,-773 445.5,-779 445.5,-779 445.5,-791 445.5,-791 445.5,-797 439.5,-803 433.5,-803"/>
<text text-anchor="start" x="159.5" y="-788.4" font-family="Source Code Pro" font-size="12.00">0x402048 &#160;mov al, byte ptr [0x403041]</text>
<text text-anchor="start" x="159.5" y="-775.4" font-family="Source Code Pro" font-size="12.00">0x40204d &#160;inc al</text>
</g>
<!-- 1 -->
<g id="node2" class="node"><title>1</title>
<path fill="none" stroke="black" d="M433.5,-730C433.5,-730 163.5,-730 163.5,-730 157.5,-730 151.5,-724 151.5,-718 151.5,-718 151.5,-706 151.5,-706 151.5,-700 157.5,-694 163.5,-694 163.5,-694 433.5,-694 433.5,-694 439.5,-694 445.5,-700 445.5,-706 445.5,-706 445.5,-718 445.5,-718 445.5,-724 439.5,-730 433.5,-730"/>
<text text-anchor="start" x="159.5" y="-715.4" font-family="Source Code Pro" font-size="12.00">0x404563 &#160;mov byte ptr [0x403041], al</text>
<text text-anchor="start" x="159.5" y="-702.4" font-family="Source Code Pro" font-size="12.00">0x404568 &#160;cmp al, 0x5</text>
</g>
<!-- 0&#45;&gt;1 -->
<g id="edge1" class="edge"><title>0&#45;&gt;1</title>
<path fill="none" stroke="black" d="M298.5,-766.813C298.5,-758.789 298.5,-749.047 298.5,-740.069"/>
<polygon fill="black" stroke="black" points="302,-740.029 298.5,-730.029 295,-740.029 302,-740.029"/>
</g>
<!-- 2 -->
<g id="node3" class="node"><title>2</title>
<path fill="none" stroke="black" d="M316.5,-643C316.5,-643 16.5,-643 16.5,-643 10.5,-643 4.5,-637 4.5,-631 4.5,-631 4.5,-556 4.5,-556 4.5,-550 10.5,-544 16.5,-544 16.5,-544 316.5,-544 316.5,-544 322.5,-544 328.5,-550 328.5,-556 328.5,-556 328.5,-631 328.5,-631 328.5,-637 322.5,-643 316.5,-643"/>
<text text-anchor="start" x="12.5" y="-629.4" font-family="Source Code Pro" font-size="12.00">0x402058 &#160;xor eax, eax</text>
<text text-anchor="start" x="12.5" y="-616.4" font-family="Source Code Pro" font-size="12.00">0x40205a &#160;mov byte ptr [0x403041], al</text>
<text text-anchor="start" x="12.5" y="-603.4" font-family="Source Code Pro" font-size="12.00">0x40205f &#160;movzx eax, byte ptr [0x403ca7]</text>
<text text-anchor="start" x="12.5" y="-590.4" font-family="Source Code Pro" font-size="12.00">0x402066 &#160;mov bx, word ptr [0x403042]</text>
<text text-anchor="start" x="12.5" y="-577.4" font-family="Source Code Pro" font-size="12.00">0x40206d &#160;movzx ecx, al</text>
<text text-anchor="start" x="12.5" y="-564.4" font-family="Source Code Pro" font-size="12.00">0x402070 &#160;shl cl, 0x1</text>
<text text-anchor="start" x="12.5" y="-551.4" font-family="Source Code Pro" font-size="12.00">0x402072 &#160;mov word ptr [ecx+0x403048], bx</text>
</g>
<!-- 1&#45;&gt;2 -->
<g id="edge2" class="edge"><title>1&#45;&gt;2</title>
<path fill="none" stroke="black" stroke-dasharray="5,2" d="M279.023,-693.81C265.72,-682.069 247.286,-665.8 229.185,-649.825"/>
<polygon fill="black" stroke="black" points="231.278,-647.003 221.464,-643.01 226.646,-652.252 231.278,-647.003"/>
<text text-anchor="middle" x="268.5" y="-664.8" font-family="Times,serif" font-size="14.00">zf=1</text>
</g>
<!-- 6 -->
<g id="node7" class="node"><title>6</title>
<path fill="gainsboro" stroke="black" d="M460,-250C460,-250 145,-250 145,-250 139,-250 133,-244 133,-238 133,-238 133,-85 133,-85 133,-79 139,-73 145,-73 145,-73 460,-73 460,-73 466,-73 472,-79 472,-85 472,-85 472,-238 472,-238 472,-244 466,-250 460,-250"/>
<text text-anchor="start" x="141" y="-236.4" font-family="Source Code Pro" font-size="12.00">0x402096 &#160;movzx eax, byte ptr [0x403ca7]</text>
<text text-anchor="start" x="141" y="-223.4" font-family="Source Code Pro" font-size="12.00">0x40209d &#160;shl eax, 0x2</text>
<text text-anchor="start" x="141" y="-210.4" font-family="Source Code Pro" font-size="12.00">0x4020a0 &#160;mov ebx, dword ptr [eax+0x40268b]</text>
<text text-anchor="start" x="141" y="-197.4" font-family="Source Code Pro" font-size="12.00">0x4020a6 &#160;mov ax, word ptr [0x403042]</text>
<text text-anchor="start" x="141" y="-184.4" font-family="Source Code Pro" font-size="12.00">0x4020ac &#160;xor edx, edx</text>
<text text-anchor="start" x="141" y="-171.4" font-family="Source Code Pro" font-size="12.00">0x4020ae &#160;mov ecx, 0x8</text>
<text text-anchor="start" x="141" y="-158.4" font-family="Source Code Pro" font-size="12.00">0x4020b3 &#160;div ecx</text>
<text text-anchor="start" x="141" y="-145.4" font-family="Source Code Pro" font-size="12.00">0x4020b5 &#160;add ebx, eax</text>
<text text-anchor="start" x="141" y="-132.4" font-family="Source Code Pro" font-size="12.00">0x4020b7 &#160;mov ebx, dword ptr [ebx]</text>
<text text-anchor="start" x="141" y="-119.4" font-family="Source Code Pro" font-size="12.00">0x4020b9 &#160;bswap ebx</text>
<text text-anchor="start" x="141" y="-106.4" font-family="Source Code Pro" font-size="12.00">0x4020bb &#160;mov cl, dl</text>
<text text-anchor="start" x="141" y="-93.4" font-family="Source Code Pro" font-size="12.00">0x4020bd &#160;shl ebx, cl</text>
<text text-anchor="start" x="141" y="-80.4" font-family="Source Code Pro" font-size="12.00">0x4020bf &#160;add word ptr [0x403042], 0x2</text>
</g>
<!-- 1&#45;&gt;6 -->
<g id="edge3" class="edge"><title>1&#45;&gt;6</title>
<path fill="none" stroke="black" stroke-dasharray="5,2" d="M313.436,-693.776C330.621,-672.136 356.5,-633.135 356.5,-594.5 356.5,-594.5 356.5,-594.5 356.5,-316 356.5,-297.441 352.944,-278.3 347.657,-260.096"/>
<polygon fill="black" stroke="black" points="350.95,-258.898 344.649,-250.381 344.263,-260.968 350.95,-258.898"/>
<text text-anchor="middle" x="369.5" y="-441.8" font-family="Times,serif" font-size="14.00">zf=0</text>
</g>
<!-- 3 -->
<g id="node4" class="node"><title>3</title>
<path fill="none" stroke="black" d="M241.5,-507C241.5,-507 91.5,-507 91.5,-507 85.5,-507 79.5,-501 79.5,-495 79.5,-495 79.5,-483 79.5,-483 79.5,-477 85.5,-471 91.5,-471 91.5,-471 241.5,-471 241.5,-471 247.5,-471 253.5,-477 253.5,-483 253.5,-483 253.5,-495 253.5,-495 253.5,-501 247.5,-507 241.5,-507"/>
<text text-anchor="start" x="87.5" y="-492.4" font-family="Source Code Pro" font-size="12.00">0x4046a8 &#160;inc al</text>
<text text-anchor="start" x="87.5" y="-479.4" font-family="Source Code Pro" font-size="12.00">0x4046aa &#160;cmp al, 0x7</text>
</g>
<!-- 2&#45;&gt;3 -->
<g id="edge4" class="edge"><title>2&#45;&gt;3</title>
<path fill="none" stroke="black" d="M166.5,-543.952C166.5,-534.741 166.5,-525.414 166.5,-517.164"/>
<polygon fill="black" stroke="black" points="170,-517.041 166.5,-507.041 163,-517.041 170,-517.041"/>
</g>
<!-- 4 -->
<g id="node5" class="node"><title>4</title>
<path fill="none" stroke="black" d="M155,-420C155,-420 12,-420 12,-420 6,-420 0,-414 0,-408 0,-408 0,-396 0,-396 0,-390 6,-384 12,-384 12,-384 155,-384 155,-384 161,-384 167,-390 167,-396 167,-396 167,-408 167,-408 167,-414 161,-420 155,-420"/>
<text text-anchor="start" x="8" y="-398.9" font-family="Source Code Pro" font-size="12.00">0x40207f &#160;xor al, al</text>
</g>
<!-- 3&#45;&gt;4 -->
<g id="edge5" class="edge"><title>3&#45;&gt;4</title>
<path fill="none" stroke="black" stroke-dasharray="5,2" d="M149.704,-470.799C137.554,-458.356 120.962,-441.364 107.428,-427.504"/>
<polygon fill="black" stroke="black" points="109.762,-424.885 100.271,-420.175 104.754,-429.775 109.762,-424.885"/>
<text text-anchor="middle" x="143.5" y="-441.8" font-family="Times,serif" font-size="14.00">cf=0</text>
</g>
<!-- 5 -->
<g id="node6" class="node"><title>5</title>
<path fill="none" stroke="black" d="M316.5,-347C316.5,-347 16.5,-347 16.5,-347 10.5,-347 4.5,-341 4.5,-335 4.5,-335 4.5,-299 4.5,-299 4.5,-293 10.5,-287 16.5,-287 16.5,-287 316.5,-287 316.5,-287 322.5,-287 328.5,-293 328.5,-299 328.5,-299 328.5,-335 328.5,-335 328.5,-341 322.5,-347 316.5,-347"/>
<text text-anchor="start" x="12.5" y="-333.4" font-family="Source Code Pro" font-size="12.00">0x402081 &#160;mov byte ptr [0x403ca7], al</text>
<text text-anchor="start" x="12.5" y="-320.4" font-family="Source Code Pro" font-size="12.00">0x402086 &#160;shl eax, 0x1</text>
<text text-anchor="start" x="12.5" y="-307.4" font-family="Source Code Pro" font-size="12.00">0x402088 &#160;mov bx, word ptr [eax+0x403048]</text>
<text text-anchor="start" x="12.5" y="-294.4" font-family="Source Code Pro" font-size="12.00">0x40208f &#160;mov word ptr [0x403042], bx</text>
</g>
<!-- 3&#45;&gt;5 -->
<g id="edge6" class="edge"><title>3&#45;&gt;5</title>
<path fill="none" stroke="black" stroke-dasharray="5,2" d="M169.424,-470.734C171.59,-457.027 174.357,-437.349 175.5,-420 176.552,-404.035 176.583,-399.963 175.5,-384 174.909,-375.293 173.884,-365.983 172.733,-357.183"/>
<polygon fill="black" stroke="black" points="176.183,-356.578 171.342,-347.154 169.249,-357.54 176.183,-356.578"/>
<text text-anchor="middle" x="189.5" y="-398.3" font-family="Times,serif" font-size="14.00">cf=1</text>
</g>
<!-- 4&#45;&gt;5 -->
<g id="edge7" class="edge"><title>4&#45;&gt;5</title>
<path fill="none" stroke="black" d="M100.698,-383.802C109.18,-375.32 119.754,-364.746 129.927,-354.573"/>
<polygon fill="black" stroke="black" points="132.632,-356.818 137.228,-347.272 127.682,-351.868 132.632,-356.818"/>
</g>
<!-- 5&#45;&gt;6 -->
<g id="edge8" class="edge"><title>5&#45;&gt;6</title>
<path fill="none" stroke="black" d="M192.401,-286.767C200.029,-278.157 208.822,-268.232 218.045,-257.823"/>
<polygon fill="black" stroke="black" points="220.814,-259.975 224.826,-250.169 215.575,-255.333 220.814,-259.975"/>
</g>
<!-- 7 -->
<g id="node8" class="node"><title>7</title>
<path fill="none" stroke="black" stroke-dasharray="1,5" d="M411.5,-36C411.5,-36 193.5,-36 193.5,-36 187.5,-36 181.5,-30 181.5,-24 181.5,-24 181.5,-12 181.5,-12 181.5,-6 187.5,-0 193.5,-0 193.5,-0 411.5,-0 411.5,-0 417.5,-0 423.5,-6 423.5,-12 423.5,-12 423.5,-24 423.5,-24 423.5,-30 417.5,-36 411.5,-36"/>
<text text-anchor="start" x="189.5" y="-14.9" font-family="Source Code Pro" font-size="12.00">0x4020c7 &#160;test ebx, 0xc0000000</text>
</g>
<!-- 6&#45;&gt;7 -->
<g id="edge9" class="edge"><title>6&#45;&gt;7</title>
<path fill="none" stroke="black" stroke-dasharray="5,2" d="M302.5,-72.8987C302.5,-63.259 302.5,-54.0624 302.5,-46.0829"/>
<polygon fill="black" stroke="black" points="306,-46.0286 302.5,-36.0286 299,-46.0287 306,-46.0286"/>
</g>
</g>
</svg>
