<?xml version="1.0" encoding="UTF-8" standalone="no"?>
<!DOCTYPE svg PUBLIC "-//W3C//DTD SVG 1.1//EN"
 "http://www.w3.org/Graphics/SVG/1.1/DTD/svg11.dtd">
<!-- Generated by graphviz version 2.38.0 (20140413.2041)
 -->
<!-- Title: G Pages: 1 -->
<svg width="512pt" height="521pt"
 viewBox="0.00 0.00 512.00 521.00" xmlns="http://www.w3.org/2000/svg" xmlns:xlink="http://www.w3.org/1999/xlink">
<g id="graph0" class="graph" transform="scale(1 1) rotate(0) translate(4 517)">
<title>G</title>
<polygon fill="white" stroke="none" points="-4,4 -4,-517 508,-517 508,4 -4,4"/>
<!-- 0 -->
<g id="node1" class="node"><title>0</title>
<path fill="cornflowerblue" stroke="black" d="M486.5,-513C486.5,-513 216.5,-513 216.5,-513 210.5,-513 204.5,-507 204.5,-501 204.5,-501 204.5,-489 204.5,-489 204.5,-483 210.5,-477 216.5,-477 216.5,-477 486.5,-477 486.5,-477 492.5,-477 498.5,-483 498.5,-489 498.5,-489 498.5,-501 498.5,-501 498.5,-507 492.5,-513 486.5,-513"/>
<text text-anchor="start" x="212.5" y="-498.4" font-family="Source Code Pro" font-size="12.00">0x402048 &#160;mov al, byte ptr [0x403041]</text>
<text text-anchor="start" x="212.5" y="-485.4" font-family="Source Code Pro" font-size="12.00">0x40204d &#160;inc al</text>
</g>
<!-- 1 -->
<g id="node2" class="node"><title>1</title>
<path fill="none" stroke="black" d="M346.5,-440C346.5,-440 196.5,-440 196.5,-440 190.5,-440 184.5,-434 184.5,-428 184.5,-428 184.5,-416 184.5,-416 184.5,-410 190.5,-404 196.5,-404 196.5,-404 346.5,-404 346.5,-404 352.5,-404 358.5,-410 358.5,-416 358.5,-416 358.5,-428 358.5,-428 358.5,-434 352.5,-440 346.5,-440"/>
<text text-anchor="start" x="192.5" y="-425.4" font-family="Source Code Pro" font-size="12.00">... &#160;&#160;&#160;&#160;&#160;&#160;...</text>
<text text-anchor="start" x="192.5" y="-412.4" font-family="Source Code Pro" font-size="12.00">0x404568 &#160;cmp al, 0x5</text>
</g>
<!-- 0&#45;&gt;1 -->
<g id="edge1" class="edge"><title>0&#45;&gt;1</title>
<path fill="none" stroke="black" d="M332.134,-476.813C322.013,-467.83 309.464,-456.693 298.413,-446.886"/>
<polygon fill="black" stroke="black" points="300.49,-444.049 290.687,-440.029 295.843,-449.284 300.49,-444.049"/>
</g>
<!-- 2 -->
<g id="node3" class="node"><title>2</title>
<path fill="none" stroke="black" d="M305,-353C305,-353 12,-353 12,-353 6,-353 0,-347 0,-341 0,-341 0,-318 0,-318 0,-312 6,-306 12,-306 12,-306 305,-306 305,-306 311,-306 317,-312 317,-318 317,-318 317,-341 317,-341 317,-347 311,-353 305,-353"/>
<text text-anchor="start" x="8" y="-339.4" font-family="Source Code Pro" font-size="12.00">... &#160;&#160;&#160;&#160;&#160;&#160;...</text>
<text text-anchor="start" x="8" y="-326.4" font-family="Source Code Pro" font-size="12.00">0x40205f &#160;movzx eax, byte ptr [0x403ca7]</text>
<text text-anchor="start" x="8" y="-313.4" font-family="Source Code Pro" font-size="12.00">... &#160;&#160;&#160;&#160;&#160;&#160;...</text>
</g>
<!-- 1&#45;&gt;2 -->
<g id="edge2" class="edge"><title>1&#45;&gt;2</title>
<path fill="none" stroke="black" stroke-dasharray="5,2" d="M250.246,-403.978C234.722,-391.545 213.288,-374.379 195.041,-359.765"/>
<polygon fill="black" stroke="black" points="196.908,-356.776 186.914,-353.257 192.532,-362.24 196.908,-356.776"/>
<text text-anchor="middle" x="238.5" y="-374.8" font-family="Times,serif" font-size="14.00">zf=1</text>
</g>
<!-- 6 -->
<g id="node7" class="node"><title>6</title>
<path fill="gainsboro" stroke="black" d="M492,-36C492,-36 199,-36 199,-36 193,-36 187,-30 187,-24 187,-24 187,-12 187,-12 187,-6 193,-0 199,-0 199,-0 492,-0 492,-0 498,-0 504,-6 504,-12 504,-12 504,-24 504,-24 504,-30 498,-36 492,-36"/>
<text text-anchor="start" x="195" y="-21.4" font-family="Source Code Pro" font-size="12.00">0x402096 &#160;movzx eax, byte ptr [0x403ca7]</text>
<text text-anchor="start" x="195" y="-8.4" font-family="Source Code Pro" font-size="12.00">... &#160;&#160;&#160;&#160;&#160;&#160;...</text>
</g>
<!-- 1&#45;&gt;6 -->
<g id="edge3" class="edge"><title>1&#45;&gt;6</title>
<path fill="none" stroke="black" stroke-dasharray="5,2" d="M297.798,-403.919C319.068,-387.813 345.5,-361.552 345.5,-330.5 345.5,-330.5 345.5,-330.5 345.5,-90 345.5,-75.6513 345.5,-59.6715 345.5,-46.5107"/>
<polygon fill="black" stroke="black" points="349,-46.2164 345.5,-36.2164 342,-46.2164 349,-46.2164"/>
<text text-anchor="middle" x="358.5" y="-203.8" font-family="Times,serif" font-size="14.00">zf=0</text>
</g>
<!-- 3 -->
<g id="node4" class="node"><title>3</title>
<path fill="none" stroke="black" d="M233.5,-269C233.5,-269 83.5,-269 83.5,-269 77.5,-269 71.5,-263 71.5,-257 71.5,-257 71.5,-245 71.5,-245 71.5,-239 77.5,-233 83.5,-233 83.5,-233 233.5,-233 233.5,-233 239.5,-233 245.5,-239 245.5,-245 245.5,-245 245.5,-257 245.5,-257 245.5,-263 239.5,-269 233.5,-269"/>
<text text-anchor="start" x="79.5" y="-254.4" font-family="Source Code Pro" font-size="12.00">0x4046a8 &#160;inc al</text>
<text text-anchor="start" x="79.5" y="-241.4" font-family="Source Code Pro" font-size="12.00">0x4046aa &#160;cmp al, 0x7</text>
</g>
<!-- 2&#45;&gt;3 -->
<g id="edge4" class="edge"><title>2&#45;&gt;3</title>
<path fill="none" stroke="black" d="M158.5,-305.961C158.5,-297.564 158.5,-287.944 158.5,-279.174"/>
<polygon fill="black" stroke="black" points="162,-279.037 158.5,-269.037 155,-279.037 162,-279.037"/>
</g>
<!-- 4 -->
<g id="node5" class="node"><title>4</title>
<path fill="none" stroke="black" d="M168,-182C168,-182 25,-182 25,-182 19,-182 13,-176 13,-170 13,-170 13,-158 13,-158 13,-152 19,-146 25,-146 25,-146 168,-146 168,-146 174,-146 180,-152 180,-158 180,-158 180,-170 180,-170 180,-176 174,-182 168,-182"/>
<text text-anchor="start" x="21" y="-160.9" font-family="Source Code Pro" font-size="12.00">0x40207f &#160;xor al, al</text>
</g>
<!-- 3&#45;&gt;4 -->
<g id="edge5" class="edge"><title>3&#45;&gt;4</title>
<path fill="none" stroke="black" stroke-dasharray="5,2" d="M145.953,-232.799C137.045,-220.587 124.941,-203.992 114.938,-190.278"/>
<polygon fill="black" stroke="black" points="117.749,-188.192 109.028,-182.175 112.093,-192.317 117.749,-188.192"/>
<text text-anchor="middle" x="144.5" y="-203.8" font-family="Times,serif" font-size="14.00">cf=0</text>
</g>
<!-- 5 -->
<g id="node6" class="node"><title>5</title>
<path fill="none" stroke="black" d="M305.5,-109C305.5,-109 35.5,-109 35.5,-109 29.5,-109 23.5,-103 23.5,-97 23.5,-97 23.5,-85 23.5,-85 23.5,-79 29.5,-73 35.5,-73 35.5,-73 305.5,-73 305.5,-73 311.5,-73 317.5,-79 317.5,-85 317.5,-85 317.5,-97 317.5,-97 317.5,-103 311.5,-109 305.5,-109"/>
<text text-anchor="start" x="31.5" y="-94.4" font-family="Source Code Pro" font-size="12.00">0x402081 &#160;mov byte ptr [0x403ca7], al</text>
<text text-anchor="start" x="31.5" y="-81.4" font-family="Source Code Pro" font-size="12.00">... &#160;&#160;&#160;&#160;&#160;&#160;...</text>
</g>
<!-- 3&#45;&gt;5 -->
<g id="edge6" class="edge"><title>3&#45;&gt;5</title>
<path fill="none" stroke="black" stroke-dasharray="5,2" d="M168.502,-232.782C175.654,-219.424 184.668,-200.181 188.5,-182 192.972,-160.787 187.606,-136.701 181.596,-118.787"/>
<polygon fill="black" stroke="black" points="184.848,-117.486 178.152,-109.275 178.266,-119.87 184.848,-117.486"/>
<text text-anchor="middle" x="203.5" y="-160.3" font-family="Times,serif" font-size="14.00">cf=1</text>
</g>
<!-- 4&#45;&gt;5 -->
<g id="edge7" class="edge"><title>4&#45;&gt;5</title>
<path fill="none" stroke="black" d="M114.413,-145.813C123.685,-136.917 135.158,-125.909 145.307,-116.172"/>
<polygon fill="black" stroke="black" points="147.959,-118.478 152.752,-109.029 143.113,-113.427 147.959,-118.478"/>
</g>
<!-- 5&#45;&gt;6 -->
<g id="edge8" class="edge"><title>5&#45;&gt;6</title>
<path fill="none" stroke="black" d="M212.417,-72.9937C236.913,-63.0555 268.021,-50.4343 294.001,-39.8939"/>
<polygon fill="black" stroke="black" points="295.368,-43.1164 303.319,-36.1136 292.736,-36.6299 295.368,-43.1164"/>
</g>
<!-- 6&#45;&gt;0 -->
<g id="edge9" class="edge"><title>6&#45;&gt;0</title>
<path fill="none" stroke="black" stroke-dasharray="1,5" d="M362.176,-36.1087C373.527,-49.6003 386.5,-69.503 386.5,-90 386.5,-423 386.5,-423 386.5,-423 386.5,-439.191 379.087,-455.516 371.085,-468.424"/>
<polygon fill="black" stroke="black" points="368.158,-466.505 365.534,-476.77 373.986,-470.381 368.158,-466.505"/>
</g>
</g>
</svg>
