<?xml version="1.0" encoding="UTF-8" standalone="no"?>
<!DOCTYPE svg PUBLIC "-//W3C//DTD SVG 1.1//EN"
 "http://www.w3.org/Graphics/SVG/1.1/DTD/svg11.dtd">
<!-- Generated by graphviz version 2.38.0 (20140413.2041)
 -->
<!-- Title: G Pages: 1 -->
<svg width="567pt" height="357pt"
 viewBox="0.00 0.00 567.00 357.00" xmlns="http://www.w3.org/2000/svg" xmlns:xlink="http://www.w3.org/1999/xlink">
<g id="graph0" class="graph" transform="scale(1 1) rotate(0) translate(4 353)">
<title>G</title>
<polygon fill="white" stroke="none" points="-4,4 -4,-353 563,-353 563,4 -4,4"/>
<!-- 0 -->
<g id="node1" class="node"><title>0</title>
<path fill="cornflowerblue" stroke="black" d="M519,-349C519,-349 360,-349 360,-349 354,-349 348,-343 348,-337 348,-337 348,-325 348,-325 348,-319 354,-313 360,-313 360,-313 519,-313 519,-313 525,-313 531,-319 531,-325 531,-325 531,-337 531,-337 531,-343 525,-349 519,-349"/>
<text text-anchor="start" x="356" y="-333.4" font-family="Source Code Pro" font-size="7.00">0x402048 &#160;mov al, byte ptr [0x403041]</text>
<text text-anchor="start" x="356" y="-325.4" font-family="Source Code Pro" font-size="7.00">0x40204d &#160;inc al</text>
</g>
<!-- 1 -->
<g id="node2" class="node"><title>1</title>
<path fill="none" stroke="black" d="M420,-276C420,-276 333,-276 333,-276 327,-276 321,-270 321,-264 321,-264 321,-252 321,-252 321,-246 327,-240 333,-240 333,-240 420,-240 420,-240 426,-240 432,-246 432,-252 432,-252 432,-264 432,-264 432,-270 426,-276 420,-276"/>
<text text-anchor="start" x="329" y="-256.4" font-family="Source Code Pro" font-size="7.00">0x404568 &#160;cmp al, 0x5</text>
</g>
<!-- 0&#45;&gt;1 -->
<g id="edge1" class="edge"><title>0&#45;&gt;1</title>
<path fill="none" stroke="black" d="M424.249,-312.813C416.511,-304.092 406.971,-293.34 398.458,-283.746"/>
<polygon fill="black" stroke="black" points="400.865,-281.186 391.61,-276.029 395.629,-285.832 400.865,-281.186"/>
</g>
<!-- 2 -->
<g id="node3" class="node"><title>2</title>
<path fill="none" stroke="black" d="M349,-196C349,-196 176,-196 176,-196 170,-196 164,-190 164,-184 164,-184 164,-172 164,-172 164,-166 170,-160 176,-160 176,-160 349,-160 349,-160 355,-160 361,-166 361,-172 361,-172 361,-184 361,-184 361,-190 355,-196 349,-196"/>
<text text-anchor="start" x="172" y="-176.4" font-family="Source Code Pro" font-size="7.00">0x40205f &#160;movzx eax, byte ptr [0x403ca7]</text>
</g>
<!-- 1&#45;&gt;2 -->
<g id="edge2" class="edge"><title>1&#45;&gt;2</title>
<path fill="none" stroke="black" stroke-dasharray="5,2" d="M351.482,-239.883C335.148,-228.706 313.632,-213.985 295.85,-201.818"/>
<polygon fill="black" stroke="black" points="297.689,-198.836 287.459,-196.078 293.736,-204.613 297.689,-198.836"/>
<text text-anchor="middle" x="330" y="-216.4" font-family="Times,serif" font-size="7.00">zf=1</text>
</g>
<!-- 6 -->
<g id="node7" class="node"><title>6</title>
<path fill="gainsboro" stroke="black" d="M547,-36C547,-36 374,-36 374,-36 368,-36 362,-30 362,-24 362,-24 362,-12 362,-12 362,-6 368,-0 374,-0 374,-0 547,-0 547,-0 553,-0 559,-6 559,-12 559,-12 559,-24 559,-24 559,-30 553,-36 547,-36"/>
<text text-anchor="start" x="370" y="-16.4" font-family="Source Code Pro" font-size="7.00">0x402096 &#160;movzx eax, byte ptr [0x403ca7]</text>
</g>
<!-- 1&#45;&gt;6 -->
<g id="edge3" class="edge"><title>1&#45;&gt;6</title>
<path fill="none" stroke="black" stroke-dasharray="5,2" d="M382.122,-239.79C393.661,-204.673 421.079,-122.304 446.5,-54 447.527,-51.2399 448.626,-48.3687 449.739,-45.5108"/>
<polygon fill="black" stroke="black" points="453.068,-46.6117 453.498,-36.0256 446.56,-44.033 453.068,-46.6117"/>
<text text-anchor="middle" x="424" y="-136.4" font-family="Times,serif" font-size="7.00">zf=0</text>
</g>
<!-- 3 -->
<g id="node4" class="node"><title>3</title>
<path fill="none" stroke="black" d="M278,-116C278,-116 191,-116 191,-116 185,-116 179,-110 179,-104 179,-104 179,-92 179,-92 179,-86 185,-80 191,-80 191,-80 278,-80 278,-80 284,-80 290,-86 290,-92 290,-92 290,-104 290,-104 290,-110 284,-116 278,-116"/>
<text text-anchor="start" x="187" y="-100.4" font-family="Source Code Pro" font-size="7.00">0x4046a8 &#160;inc al</text>
<text text-anchor="start" x="187" y="-92.4" font-family="Source Code Pro" font-size="7.00">0x4046aa &#160;cmp al, 0x7</text>
</g>
<!-- 2&#45;&gt;3 -->
<g id="edge4" class="edge"><title>2&#45;&gt;3</title>
<path fill="none" stroke="black" d="M256.286,-159.689C252.733,-149.793 248.2,-137.164 244.19,-125.993"/>
<polygon fill="black" stroke="black" points="247.37,-124.492 240.697,-116.262 240.781,-126.857 247.37,-124.492"/>
</g>
<!-- 4 -->
<g id="node5" class="node"><title>4</title>
<path fill="none" stroke="black" d="M95,-36C95,-36 12,-36 12,-36 6,-36 -7.10543e-15,-30 -7.10543e-15,-24 -7.10543e-15,-24 -7.10543e-15,-12 -7.10543e-15,-12 -7.10543e-15,-6 6,-0 12,-0 12,-0 95,-0 95,-0 101,-0 107,-6 107,-12 107,-12 107,-24 107,-24 107,-30 101,-36 95,-36"/>
<text text-anchor="start" x="8" y="-16.4" font-family="Source Code Pro" font-size="7.00">0x40207f &#160;xor al, al</text>
</g>
<!-- 3&#45;&gt;4 -->
<g id="edge5" class="edge"><title>3&#45;&gt;4</title>
<path fill="none" stroke="black" stroke-dasharray="5,2" d="M194.779,-79.8826C167.665,-68.1984 131.562,-52.6398 102.639,-40.1757"/>
<polygon fill="black" stroke="black" points="103.697,-36.8209 93.1286,-36.0775 100.927,-43.2494 103.697,-36.8209"/>
<text text-anchor="middle" x="156" y="-56.4" font-family="Times,serif" font-size="7.00">cf=0</text>
</g>
<!-- 5 -->
<g id="node6" class="node"><title>5</title>
<path fill="none" stroke="black" d="M314,-36C314,-36 155,-36 155,-36 149,-36 143,-30 143,-24 143,-24 143,-12 143,-12 143,-6 149,-0 155,-0 155,-0 314,-0 314,-0 320,-0 326,-6 326,-12 326,-12 326,-24 326,-24 326,-30 320,-36 314,-36"/>
<text text-anchor="start" x="151" y="-16.4" font-family="Source Code Pro" font-size="7.00">0x402081 &#160;mov byte ptr [0x403ca7], al</text>
</g>
<!-- 3&#45;&gt;5 -->
<g id="edge6" class="edge"><title>3&#45;&gt;5</title>
<path fill="none" stroke="black" stroke-dasharray="5,2" d="M234.5,-79.6893C234.5,-69.8938 234.5,-57.4218 234.5,-46.335"/>
<polygon fill="black" stroke="black" points="238,-46.2623 234.5,-36.2623 231,-46.2624 238,-46.2623"/>
<text text-anchor="middle" x="241" y="-56.4" font-family="Times,serif" font-size="7.00">cf=1</text>
</g>
<!-- 4&#45;&gt;5 -->
<g id="edge7" class="edge"><title>4&#45;&gt;5</title>
<path fill="none" stroke="black" d="M107.234,-18C115.599,-18 123.963,-18 132.328,-18"/>
<polygon fill="black" stroke="black" points="132.531,-21.5001 142.531,-18 132.531,-14.5001 132.531,-21.5001"/>
</g>
<!-- 5&#45;&gt;6 -->
<g id="edge8" class="edge"><title>5&#45;&gt;6</title>
<path fill="none" stroke="black" d="M326.312,-18C334.852,-18 343.392,-18 351.931,-18"/>
<polygon fill="black" stroke="black" points="351.956,-21.5001 361.956,-18 351.956,-14.5001 351.956,-21.5001"/>
</g>
<!-- 6&#45;&gt;0 -->
<g id="edge9" class="edge"><title>6&#45;&gt;0</title>
<path fill="none" stroke="black" stroke-dasharray="1,5" d="M460.5,-36.0418C460.5,-51.8437 460.5,-76.0104 460.5,-97 460.5,-259 460.5,-259 460.5,-259 460.5,-274.16 456.043,-290.421 451.236,-303.55"/>
<polygon fill="black" stroke="black" points="447.957,-302.323 447.559,-312.91 454.473,-304.882 447.957,-302.323"/>
</g>
</g>
</svg>
