<?xml version="1.0" encoding="UTF-8" standalone="no"?>
<!DOCTYPE svg PUBLIC "-//W3C//DTD SVG 1.1//EN"
 "http://www.w3.org/Graphics/SVG/1.1/DTD/svg11.dtd">
<!-- Generated by graphviz version 2.38.0 (20140413.2041)
 -->
<!-- Title: G Pages: 1 -->
<svg width="549pt" height="811pt"
 viewBox="0.00 0.00 548.50 811.00" xmlns="http://www.w3.org/2000/svg" xmlns:xlink="http://www.w3.org/1999/xlink">
<g id="graph0" class="graph" transform="scale(1 1) rotate(0) translate(4 807)">
<title>G</title>
<polygon fill="white" stroke="none" points="-4,4 -4,-807 544.5,-807 544.5,4 -4,4"/>
<!-- 0 -->
<g id="node1" class="node"><title>0</title>
<path fill="cornflowerblue" stroke="black" d="M528.5,-803C528.5,-803 258.5,-803 258.5,-803 252.5,-803 246.5,-797 246.5,-791 246.5,-791 246.5,-779 246.5,-779 246.5,-773 252.5,-767 258.5,-767 258.5,-767 528.5,-767 528.5,-767 534.5,-767 540.5,-773 540.5,-779 540.5,-779 540.5,-791 540.5,-791 540.5,-797 534.5,-803 528.5,-803"/>
<text text-anchor="start" x="254.5" y="-788.4" font-family="Source Code Pro" font-size="12.00">0x402048 &#160;mov al, byte ptr [0x403041]</text>
<text text-anchor="start" x="254.5" y="-775.4" font-family="Source Code Pro" font-size="12.00">0x40204d &#160;inc al</text>
</g>
<!-- 1 -->
<g id="node2" class="node"><title>1</title>
<path fill="none" stroke="black" d="M403.5,-730C403.5,-730 133.5,-730 133.5,-730 127.5,-730 121.5,-724 121.5,-718 121.5,-718 121.5,-706 121.5,-706 121.5,-700 127.5,-694 133.5,-694 133.5,-694 403.5,-694 403.5,-694 409.5,-694 415.5,-700 415.5,-706 415.5,-706 415.5,-718 415.5,-718 415.5,-724 409.5,-730 403.5,-730"/>
<text text-anchor="start" x="129.5" y="-715.4" font-family="Source Code Pro" font-size="12.00">0x404563 &#160;mov byte ptr [0x403041], al</text>
<text text-anchor="start" x="129.5" y="-702.4" font-family="Source Code Pro" font-size="12.00">0x404568 &#160;cmp al, 0x5</text>
</g>
<!-- 0&#45;&gt;1 -->
<g id="edge1" class="edge"><title>0&#45;&gt;1</title>
<path fill="none" stroke="black" d="M363.559,-766.994C346.83,-757.491 325.782,-745.536 307.747,-735.292"/>
<polygon fill="black" stroke="black" points="309.053,-732.009 298.63,-730.114 305.596,-738.096 309.053,-732.009"/>
</g>
<!-- 2 -->
<g id="node3" class="node"><title>2</title>
<path fill="none" stroke="black" d="M316.5,-643C316.5,-643 16.5,-643 16.5,-643 10.5,-643 4.5,-637 4.5,-631 4.5,-631 4.5,-556 4.5,-556 4.5,-550 10.5,-544 16.5,-544 16.5,-544 316.5,-544 316.5,-544 322.5,-544 328.5,-550 328.5,-556 328.5,-556 328.5,-631 328.5,-631 328.5,-637 322.5,-643 316.5,-643"/>
<text text-anchor="start" x="12.5" y="-629.4" font-family="Source Code Pro" font-size="12.00">0x402058 &#160;xor eax, eax</text>
<text text-anchor="start" x="12.5" y="-616.4" font-family="Source Code Pro" font-size="12.00">0x40205a &#160;mov byte ptr [0x403041], al</text>
<text text-anchor="start" x="12.5" y="-603.4" font-family="Source Code Pro" font-size="12.00">0x40205f &#160;movzx eax, byte ptr [0x403ca7]</text>
<text text-anchor="start" x="12.5" y="-590.4" font-family="Source Code Pro" font-size="12.00">0x402066 &#160;mov bx, word ptr [0x403042]</text>
<text text-anchor="start" x="12.5" y="-577.4" font-family="Source Code Pro" font-size="12.00">0x40206d &#160;movzx ecx, al</text>
<text text-anchor="start" x="12.5" y="-564.4" font-family="Source Code Pro" font-size="12.00">0x402070 &#160;shl cl, 0x1</text>
<text text-anchor="start" x="12.5" y="-551.4" font-family="Source Code Pro" font-size="12.00">0x402072 &#160;mov word ptr [ecx+0x403048], bx</text>
</g>
<!-- 1&#45;&gt;2 -->
<g id="edge2" class="edge"><title>1&#45;&gt;2</title>
<path fill="none" stroke="black" stroke-dasharray="5,2" d="M253.45,-693.81C243.353,-682.279 229.433,-666.379 215.688,-650.681"/>
<polygon fill="black" stroke="black" points="218.193,-648.228 208.972,-643.01 212.927,-652.84 218.193,-648.228"/>
<text text-anchor="middle" x="249.5" y="-664.8" font-family="Times,serif" font-size="14.00">zf=1</text>
</g>
<!-- 6 -->
<g id="node7" class="node"><title>6</title>
<path fill="gainsboro" stroke="black" d="M403,-250C403,-250 88,-250 88,-250 82,-250 76,-244 76,-238 76,-238 76,-85 76,-85 76,-79 82,-73 88,-73 88,-73 403,-73 403,-73 409,-73 415,-79 415,-85 415,-85 415,-238 415,-238 415,-244 409,-250 403,-250"/>
<text text-anchor="start" x="84" y="-236.4" font-family="Source Code Pro" font-size="12.00">0x402096 &#160;movzx eax, byte ptr [0x403ca7]</text>
<text text-anchor="start" x="84" y="-223.4" font-family="Source Code Pro" font-size="12.00">0x40209d &#160;shl eax, 0x2</text>
<text text-anchor="start" x="84" y="-210.4" font-family="Source Code Pro" font-size="12.00">0x4020a0 &#160;mov ebx, dword ptr [eax+0x40268b]</text>
<text text-anchor="start" x="84" y="-197.4" font-family="Source Code Pro" font-size="12.00">0x4020a6 &#160;mov ax, word ptr [0x403042]</text>
<text text-anchor="start" x="84" y="-184.4" font-family="Source Code Pro" font-size="12.00">0x4020ac &#160;xor edx, edx</text>
<text text-anchor="start" x="84" y="-171.4" font-family="Source Code Pro" font-size="12.00">0x4020ae &#160;mov ecx, 0x8</text>
<text text-anchor="start" x="84" y="-158.4" font-family="Source Code Pro" font-size="12.00">0x4020b3 &#160;div ecx</text>
<text text-anchor="start" x="84" y="-145.4" font-family="Source Code Pro" font-size="12.00">0x4020b5 &#160;add ebx, eax</text>
<text text-anchor="start" x="84" y="-132.4" font-family="Source Code Pro" font-size="12.00">0x4020b7 &#160;mov ebx, dword ptr [ebx]</text>
<text text-anchor="start" x="84" y="-119.4" font-family="Source Code Pro" font-size="12.00">0x4020b9 &#160;bswap ebx</text>
<text text-anchor="start" x="84" y="-106.4" font-family="Source Code Pro" font-size="12.00">0x4020bb &#160;mov cl, dl</text>
<text text-anchor="start" x="84" y="-93.4" font-family="Source Code Pro" font-size="12.00">0x4020bd &#160;shl ebx, cl</text>
<text text-anchor="start" x="84" y="-80.4" font-family="Source Code Pro" font-size="12.00">0x4020bf &#160;add word ptr [0x403042], 0x2</text>
</g>
<!-- 1&#45;&gt;6 -->
<g id="edge3" class="edge"><title>1&#45;&gt;6</title>
<path fill="none" stroke="black" stroke-dasharray="5,2" d="M293.013,-693.897C319.051,-673.51 356.5,-636.83 356.5,-594.5 356.5,-594.5 356.5,-594.5 356.5,-316 356.5,-295.976 350.221,-276.794 340.65,-259.186"/>
<polygon fill="black" stroke="black" points="343.425,-256.997 335.36,-250.126 337.38,-260.527 343.425,-256.997"/>
<text text-anchor="middle" x="369.5" y="-441.8" font-family="Times,serif" font-size="14.00">zf=0</text>
</g>
<!-- 3 -->
<g id="node4" class="node"><title>3</title>
<path fill="none" stroke="black" d="M241.5,-507C241.5,-507 91.5,-507 91.5,-507 85.5,-507 79.5,-501 79.5,-495 79.5,-495 79.5,-483 79.5,-483 79.5,-477 85.5,-471 91.5,-471 91.5,-471 241.5,-471 241.5,-471 247.5,-471 253.5,-477 253.5,-483 253.5,-483 253.5,-495 253.5,-495 253.5,-501 247.5,-507 241.5,-507"/>
<text text-anchor="start" x="87.5" y="-492.4" font-family="Source Code Pro" font-size="12.00">0x4046a8 &#160;inc al</text>
<text text-anchor="start" x="87.5" y="-479.4" font-family="Source Code Pro" font-size="12.00">0x4046aa &#160;cmp al, 0x7</text>
</g>
<!-- 2&#45;&gt;3 -->
<g id="edge4" class="edge"><title>2&#45;&gt;3</title>
<path fill="none" stroke="black" d="M166.5,-543.952C166.5,-534.741 166.5,-525.414 166.5,-517.164"/>
<polygon fill="black" stroke="black" points="170,-517.041 166.5,-507.041 163,-517.041 170,-517.041"/>
</g>
<!-- 4 -->
<g id="node5" class="node"><title>4</title>
<path fill="none" stroke="black" d="M155,-420C155,-420 12,-420 12,-420 6,-420 0,-414 0,-408 0,-408 0,-396 0,-396 0,-390 6,-384 12,-384 12,-384 155,-384 155,-384 161,-384 167,-390 167,-396 167,-396 167,-408 167,-408 167,-414 161,-420 155,-420"/>
<text text-anchor="start" x="8" y="-398.9" font-family="Source Code Pro" font-size="12.00">0x40207f &#160;xor al, al</text>
</g>
<!-- 3&#45;&gt;4 -->
<g id="edge5" class="edge"><title>3&#45;&gt;4</title>
<path fill="none" stroke="black" stroke-dasharray="5,2" d="M149.704,-470.799C137.554,-458.356 120.962,-441.364 107.428,-427.504"/>
<polygon fill="black" stroke="black" points="109.762,-424.885 100.271,-420.175 104.754,-429.775 109.762,-424.885"/>
<text text-anchor="middle" x="143.5" y="-441.8" font-family="Times,serif" font-size="14.00">cf=0</text>
</g>
<!-- 5 -->
<g id="node6" class="node"><title>5</title>
<path fill="none" stroke="black" d="M316.5,-347C316.5,-347 16.5,-347 16.5,-347 10.5,-347 4.5,-341 4.5,-335 4.5,-335 4.5,-299 4.5,-299 4.5,-293 10.5,-287 16.5,-287 16.5,-287 316.5,-287 316.5,-287 322.5,-287 328.5,-293 328.5,-299 328.5,-299 328.5,-335 328.5,-335 328.5,-341 322.5,-347 316.5,-347"/>
<text text-anchor="start" x="12.5" y="-333.4" font-family="Source Code Pro" font-size="12.00">0x402081 &#160;mov byte ptr [0x403ca7], al</text>
<text text-anchor="start" x="12.5" y="-320.4" font-family="Source Code Pro" font-size="12.00">0x402086 &#160;shl eax, 0x1</text>
<text text-anchor="start" x="12.5" y="-307.4" font-family="Source Code Pro" font-size="12.00">0x402088 &#160;mov bx, word ptr [eax+0x403048]</text>
<text text-anchor="start" x="12.5" y="-294.4" font-family="Source Code Pro" font-size="12.00">0x40208f &#160;mov word ptr [0x403042], bx</text>
</g>
<!-- 3&#45;&gt;5 -->
<g id="edge6" class="edge"><title>3&#45;&gt;5</title>
<path fill="none" stroke="black" stroke-dasharray="5,2" d="M169.424,-470.734C171.59,-457.027 174.357,-437.349 175.5,-420 176.552,-404.035 176.583,-399.963 175.5,-384 174.909,-375.293 173.884,-365.983 172.733,-357.183"/>
<polygon fill="black" stroke="black" points="176.183,-356.578 171.342,-347.154 169.249,-357.54 176.183,-356.578"/>
<text text-anchor="middle" x="189.5" y="-398.3" font-family="Times,serif" font-size="14.00">cf=1</text>
</g>
<!-- 4&#45;&gt;5 -->
<g id="edge7" class="edge"><title>4&#45;&gt;5</title>
<path fill="none" stroke="black" d="M100.698,-383.802C109.18,-375.32 119.754,-364.746 129.927,-354.573"/>
<polygon fill="black" stroke="black" points="132.632,-356.818 137.228,-347.272 127.682,-351.868 132.632,-356.818"/>
</g>
<!-- 5&#45;&gt;6 -->
<g id="edge8" class="edge"><title>5&#45;&gt;6</title>
<path fill="none" stroke="black" d="M181.545,-286.767C185.761,-278.575 190.59,-269.193 195.663,-259.335"/>
<polygon fill="black" stroke="black" points="198.916,-260.662 200.38,-250.169 192.692,-257.459 198.916,-260.662"/>
</g>
<!-- 7 -->
<g id="node8" class="node"><title>7</title>
<path fill="none" stroke="black" stroke-dasharray="1,5" d="M496.5,-36C496.5,-36 278.5,-36 278.5,-36 272.5,-36 266.5,-30 266.5,-24 266.5,-24 266.5,-12 266.5,-12 266.5,-6 272.5,-0 278.5,-0 278.5,-0 496.5,-0 496.5,-0 502.5,-0 508.5,-6 508.5,-12 508.5,-12 508.5,-24 508.5,-24 508.5,-30 502.5,-36 496.5,-36"/>
<text text-anchor="start" x="274.5" y="-14.9" font-family="Source Code Pro" font-size="12.00">0x4020c7 &#160;test ebx, 0xc0000000</text>
</g>
<!-- 6&#45;&gt;7 -->
<g id="edge9" class="edge"><title>6&#45;&gt;7</title>
<path fill="none" stroke="black" stroke-dasharray="5,2" d="M333.411,-72.8987C344.294,-62.0541 354.614,-51.7702 363.266,-43.1491"/>
<polygon fill="black" stroke="black" points="365.798,-45.5665 370.411,-36.0286 360.857,-40.608 365.798,-45.5665"/>
</g>
<!-- 7&#45;&gt;0 -->
<g id="edge10" class="edge"><title>7&#45;&gt;0</title>
<path fill="none" stroke="black" stroke-dasharray="1,5" d="M402.046,-36.4611C409.776,-46.565 418.828,-59.8519 424.5,-73 440.263,-109.54 443.5,-120.705 443.5,-160.5 443.5,-713 443.5,-713 443.5,-713 443.5,-730.604 433.098,-746.92 421.783,-759.46"/>
<polygon fill="black" stroke="black" points="419.154,-757.144 414.705,-766.759 424.179,-762.017 419.154,-757.144"/>
</g>
</g>
</svg>
