<?xml version="1.0" encoding="UTF-8" standalone="no"?>
<!DOCTYPE svg PUBLIC "-//W3C//DTD SVG 1.1//EN"
 "http://www.w3.org/Graphics/SVG/1.1/DTD/svg11.dtd">
<!-- Generated by graphviz version 2.38.0 (20140413.2041)
 -->
<!-- Title: G Pages: 1 -->
<svg width="315pt" height="197pt"
 viewBox="0.00 0.00 315.00 197.00" xmlns="http://www.w3.org/2000/svg" xmlns:xlink="http://www.w3.org/1999/xlink">
<g id="graph0" class="graph" transform="scale(1 1) rotate(0) translate(4 193)">
<title>G</title>
<polygon fill="white" stroke="none" points="-4,4 -4,-193 311,-193 311,4 -4,4"/>
<!-- 0 -->
<g id="node1" class="node"><title>0</title>
<path fill="cornflowerblue" stroke="black" d="M295,-189C295,-189 136,-189 136,-189 130,-189 124,-183 124,-177 124,-177 124,-165 124,-165 124,-159 130,-153 136,-153 136,-153 295,-153 295,-153 301,-153 307,-159 307,-165 307,-165 307,-177 307,-177 307,-183 301,-189 295,-189"/>
<text text-anchor="start" x="132" y="-173.4" font-family="Source Code Pro" font-size="7.00">0x402048 &#160;mov al, byte ptr [0x403041]</text>
<text text-anchor="start" x="132" y="-165.4" font-family="Source Code Pro" font-size="7.00">0x40204d &#160;inc al</text>
</g>
<!-- 1 -->
<g id="node2" class="node"><title>1</title>
<path fill="none" stroke="black" d="M205,-116C205,-116 46,-116 46,-116 40,-116 34,-110 34,-104 34,-104 34,-92 34,-92 34,-86 40,-80 46,-80 46,-80 205,-80 205,-80 211,-80 217,-86 217,-92 217,-92 217,-104 217,-104 217,-110 211,-116 205,-116"/>
<text text-anchor="start" x="42" y="-100.4" font-family="Source Code Pro" font-size="7.00">0x404563 &#160;mov byte ptr [0x403041], al</text>
<text text-anchor="start" x="42" y="-92.4" font-family="Source Code Pro" font-size="7.00">0x404568 &#160;cmp al, 0x5</text>
</g>
<!-- 0&#45;&gt;1 -->
<g id="edge1" class="edge"><title>0&#45;&gt;1</title>
<path fill="none" stroke="black" d="M193.714,-152.813C182.106,-143.656 167.661,-132.26 155.055,-122.316"/>
<polygon fill="black" stroke="black" points="157.105,-119.475 147.086,-116.029 152.769,-124.97 157.105,-119.475"/>
</g>
<!-- 2 -->
<g id="node3" class="node"><title>2</title>
<path fill="none" stroke="black" d="M171,-36C171,-36 12,-36 12,-36 6,-36 0,-30 0,-24 0,-24 0,-12 0,-12 0,-6 6,-0 12,-0 12,-0 171,-0 171,-0 177,-0 183,-6 183,-12 183,-12 183,-24 183,-24 183,-30 177,-36 171,-36"/>
<text text-anchor="start" x="8" y="-20.4" font-family="Source Code Pro" font-size="7.00">0x402058 &#160;xor eax, eax</text>
<text text-anchor="start" x="8" y="-12.4" font-family="Source Code Pro" font-size="7.00">0x40205a &#160;mov byte ptr [0x403041], al</text>
</g>
<!-- 1&#45;&gt;2 -->
<g id="edge2" class="edge"><title>1&#45;&gt;2</title>
<path fill="none" stroke="black" stroke-dasharray="5,2" d="M117.954,-79.6893C113.596,-69.6919 108.023,-56.9064 103.117,-45.651"/>
<polygon fill="black" stroke="black" points="106.229,-44.0307 99.0246,-36.2623 99.8121,-46.8279 106.229,-44.0307"/>
<text text-anchor="middle" x="117" y="-56.4" font-family="Times,serif" font-size="7.00">zf=1</text>
</g>
<!-- 3 -->
<g id="node4" class="node"><title>3</title>
<path fill="gainsboro" stroke="black" d="M260.5,-36C260.5,-36 230.5,-36 230.5,-36 224.5,-36 218.5,-30 218.5,-24 218.5,-24 218.5,-12 218.5,-12 218.5,-6 224.5,-0 230.5,-0 230.5,-0 260.5,-0 260.5,-0 266.5,-0 272.5,-6 272.5,-12 272.5,-12 272.5,-24 272.5,-24 272.5,-30 266.5,-36 260.5,-36"/>
<text text-anchor="middle" x="245.5" y="-16.4" font-family="Source Code Pro" font-size="7.00">...</text>
</g>
<!-- 1&#45;&gt;3 -->
<g id="edge3" class="edge"><title>1&#45;&gt;3</title>
<path fill="none" stroke="black" stroke-dasharray="5,2" d="M151.835,-79.8826C169.107,-68.6556 191.882,-53.8515 210.65,-41.6527"/>
<polygon fill="black" stroke="black" points="212.75,-44.462 219.227,-36.0775 208.935,-38.5929 212.75,-44.462"/>
<text text-anchor="middle" x="196" y="-56.4" font-family="Times,serif" font-size="7.00">zf=0</text>
</g>
<!-- 2&#45;&gt;3 -->
<g id="edge4" class="edge"><title>2&#45;&gt;3</title>
<path fill="none" stroke="black" d="M183.238,-18C191.538,-18 199.837,-18 208.137,-18"/>
<polygon fill="black" stroke="black" points="208.261,-21.5001 218.26,-18 208.26,-14.5001 208.261,-21.5001"/>
</g>
<!-- 3&#45;&gt;0 -->
<g id="edge5" class="edge"><title>3&#45;&gt;0</title>
<path fill="none" stroke="black" stroke-dasharray="1,5" d="M242.083,-36.1975C236.909,-62.2425 227.038,-111.927 220.889,-142.876"/>
<polygon fill="black" stroke="black" points="217.399,-142.482 218.883,-152.972 224.265,-143.846 217.399,-142.482"/>
</g>
</g>
</svg>
