<?xml version="1.0" encoding="UTF-8" standalone="no"?>
<!DOCTYPE svg PUBLIC "-//W3C//DTD SVG 1.1//EN"
 "http://www.w3.org/Graphics/SVG/1.1/DTD/svg11.dtd">
<!-- Generated by graphviz version 2.38.0 (20140413.2041)
 -->
<!-- Title: G Pages: 1 -->
<svg width="786pt" height="461pt"
 viewBox="0.00 0.00 785.50 461.00" xmlns="http://www.w3.org/2000/svg" xmlns:xlink="http://www.w3.org/1999/xlink">
<g id="graph0" class="graph" transform="scale(1 1) rotate(0) translate(4 457)">
<title>G</title>
<polygon fill="white" stroke="none" points="-4,4 -4,-457 781.5,-457 781.5,4 -4,4"/>
<!-- 0 -->
<g id="node1" class="node"><title>0</title>
<path fill="cornflowerblue" stroke="black" d="M654,-453C654,-453 495,-453 495,-453 489,-453 483,-447 483,-441 483,-441 483,-429 483,-429 483,-423 489,-417 495,-417 495,-417 654,-417 654,-417 660,-417 666,-423 666,-429 666,-429 666,-441 666,-441 666,-447 660,-453 654,-453"/>
<text text-anchor="start" x="491" y="-437.4" font-family="Source Code Pro" font-size="7.00">0x402048 &#160;mov al, byte ptr [0x403041]</text>
<text text-anchor="start" x="491" y="-429.4" font-family="Source Code Pro" font-size="7.00">0x40204d &#160;inc al</text>
</g>
<!-- 1 -->
<g id="node2" class="node"><title>1</title>
<path fill="none" stroke="black" d="M564,-380C564,-380 405,-380 405,-380 399,-380 393,-374 393,-368 393,-368 393,-356 393,-356 393,-350 399,-344 405,-344 405,-344 564,-344 564,-344 570,-344 576,-350 576,-356 576,-356 576,-368 576,-368 576,-374 570,-380 564,-380"/>
<text text-anchor="start" x="401" y="-364.4" font-family="Source Code Pro" font-size="7.00">0x404563 &#160;mov byte ptr [0x403041], al</text>
<text text-anchor="start" x="401" y="-356.4" font-family="Source Code Pro" font-size="7.00">0x404568 &#160;cmp al, 0x5</text>
</g>
<!-- 0&#45;&gt;1 -->
<g id="edge1" class="edge"><title>0&#45;&gt;1</title>
<path fill="none" stroke="black" d="M552.714,-416.813C541.106,-407.656 526.661,-396.26 514.055,-386.316"/>
<polygon fill="black" stroke="black" points="516.105,-383.475 506.086,-380.029 511.769,-388.97 516.105,-383.475"/>
</g>
<!-- 2 -->
<g id="node3" class="node"><title>2</title>
<path fill="none" stroke="black" d="M412,-300C412,-300 235,-300 235,-300 229,-300 223,-294 223,-288 223,-288 223,-248 223,-248 223,-242 229,-236 235,-236 235,-236 412,-236 412,-236 418,-236 424,-242 424,-248 424,-248 424,-288 424,-288 424,-294 418,-300 412,-300"/>
<text text-anchor="start" x="231" y="-290.4" font-family="Source Code Pro" font-size="7.00">0x402058 &#160;xor eax, eax</text>
<text text-anchor="start" x="231" y="-282.4" font-family="Source Code Pro" font-size="7.00">0x40205a &#160;mov byte ptr [0x403041], al</text>
<text text-anchor="start" x="231" y="-274.4" font-family="Source Code Pro" font-size="7.00">0x40205f &#160;movzx eax, byte ptr [0x403ca7]</text>
<text text-anchor="start" x="231" y="-266.4" font-family="Source Code Pro" font-size="7.00">0x402066 &#160;mov bx, word ptr [0x403042]</text>
<text text-anchor="start" x="231" y="-258.4" font-family="Source Code Pro" font-size="7.00">0x40206d &#160;movzx ecx, al</text>
<text text-anchor="start" x="231" y="-250.4" font-family="Source Code Pro" font-size="7.00">0x402070 &#160;shl cl, 0x1</text>
<text text-anchor="start" x="231" y="-242.4" font-family="Source Code Pro" font-size="7.00">0x402072 &#160;mov word ptr [ecx+0x403048], bx</text>
</g>
<!-- 1&#45;&gt;2 -->
<g id="edge2" class="edge"><title>1&#45;&gt;2</title>
<path fill="none" stroke="black" stroke-dasharray="5,2" d="M454.594,-343.911C435.564,-333.037 410.191,-318.537 386.838,-305.193"/>
<polygon fill="black" stroke="black" points="388.423,-302.068 378.004,-300.145 384.95,-308.145 388.423,-302.068"/>
<text text-anchor="middle" x="430" y="-320.4" font-family="Times,serif" font-size="7.00">zf=1</text>
</g>
<!-- 6 -->
<g id="node7" class="node"><title>6</title>
<path fill="gainsboro" stroke="black" d="M577.5,-112C577.5,-112 391.5,-112 391.5,-112 385.5,-112 379.5,-106 379.5,-100 379.5,-100 379.5,-12 379.5,-12 379.5,-6 385.5,-0 391.5,-0 391.5,-0 577.5,-0 577.5,-0 583.5,-0 589.5,-6 589.5,-12 589.5,-12 589.5,-100 589.5,-100 589.5,-106 583.5,-112 577.5,-112"/>
<text text-anchor="start" x="387.5" y="-102.4" font-family="Source Code Pro" font-size="7.00">0x402096 &#160;movzx eax, byte ptr [0x403ca7]</text>
<text text-anchor="start" x="387.5" y="-94.4" font-family="Source Code Pro" font-size="7.00">0x40209d &#160;shl eax, 0x2</text>
<text text-anchor="start" x="387.5" y="-86.4" font-family="Source Code Pro" font-size="7.00">0x4020a0 &#160;mov ebx, dword ptr [eax+0x40268b]</text>
<text text-anchor="start" x="387.5" y="-78.4" font-family="Source Code Pro" font-size="7.00">0x4020a6 &#160;mov ax, word ptr [0x403042]</text>
<text text-anchor="start" x="387.5" y="-70.4" font-family="Source Code Pro" font-size="7.00">0x4020ac &#160;xor edx, edx</text>
<text text-anchor="start" x="387.5" y="-62.4" font-family="Source Code Pro" font-size="7.00">0x4020ae &#160;mov ecx, 0x8</text>
<text text-anchor="start" x="387.5" y="-54.4" font-family="Source Code Pro" font-size="7.00">0x4020b3 &#160;div ecx</text>
<text text-anchor="start" x="387.5" y="-46.4" font-family="Source Code Pro" font-size="7.00">0x4020b5 &#160;add ebx, eax</text>
<text text-anchor="start" x="387.5" y="-38.4" font-family="Source Code Pro" font-size="7.00">0x4020b7 &#160;mov ebx, dword ptr [ebx]</text>
<text text-anchor="start" x="387.5" y="-30.4" font-family="Source Code Pro" font-size="7.00">0x4020b9 &#160;bswap ebx</text>
<text text-anchor="start" x="387.5" y="-22.4" font-family="Source Code Pro" font-size="7.00">0x4020bb &#160;mov cl, dl</text>
<text text-anchor="start" x="387.5" y="-14.4" font-family="Source Code Pro" font-size="7.00">0x4020bd &#160;shl ebx, cl</text>
<text text-anchor="start" x="387.5" y="-6.4" font-family="Source Code Pro" font-size="7.00">0x4020bf &#160;add word ptr [0x403042], 0x2</text>
</g>
<!-- 1&#45;&gt;6 -->
<g id="edge3" class="edge"><title>1&#45;&gt;6</title>
<path fill="none" stroke="black" stroke-dasharray="5,2" d="M484.5,-343.785C484.5,-301.944 484.5,-193.15 484.5,-122.237"/>
<polygon fill="black" stroke="black" points="488,-122.062 484.5,-112.062 481,-122.062 488,-122.062"/>
<text text-anchor="middle" x="491" y="-212.4" font-family="Times,serif" font-size="7.00">zf=0</text>
</g>
<!-- 3 -->
<g id="node4" class="node"><title>3</title>
<path fill="none" stroke="black" d="M287,-192C287,-192 200,-192 200,-192 194,-192 188,-186 188,-180 188,-180 188,-168 188,-168 188,-162 194,-156 200,-156 200,-156 287,-156 287,-156 293,-156 299,-162 299,-168 299,-168 299,-180 299,-180 299,-186 293,-192 287,-192"/>
<text text-anchor="start" x="196" y="-176.4" font-family="Source Code Pro" font-size="7.00">0x4046a8 &#160;inc al</text>
<text text-anchor="start" x="196" y="-168.4" font-family="Source Code Pro" font-size="7.00">0x4046aa &#160;cmp al, 0x7</text>
</g>
<!-- 2&#45;&gt;3 -->
<g id="edge4" class="edge"><title>2&#45;&gt;3</title>
<path fill="none" stroke="black" d="M296.416,-235.853C286.202,-224.108 274.731,-210.915 265.086,-199.824"/>
<polygon fill="black" stroke="black" points="267.633,-197.419 258.43,-192.17 262.351,-202.012 267.633,-197.419"/>
</g>
<!-- 4 -->
<g id="node5" class="node"><title>4</title>
<path fill="none" stroke="black" d="M95,-74C95,-74 12,-74 12,-74 6,-74 -7.10543e-15,-68 -7.10543e-15,-62 -7.10543e-15,-62 -7.10543e-15,-50 -7.10543e-15,-50 -7.10543e-15,-44 6,-38 12,-38 12,-38 95,-38 95,-38 101,-38 107,-44 107,-50 107,-50 107,-62 107,-62 107,-68 101,-74 95,-74"/>
<text text-anchor="start" x="8" y="-54.4" font-family="Source Code Pro" font-size="7.00">0x40207f &#160;xor al, al</text>
</g>
<!-- 3&#45;&gt;4 -->
<g id="edge5" class="edge"><title>3&#45;&gt;4</title>
<path fill="none" stroke="black" stroke-dasharray="5,2" d="M210.781,-155.919C188.652,-144.11 158.937,-127.747 133.5,-112 117.479,-102.082 100.193,-90.3373 85.8038,-80.2529"/>
<polygon fill="black" stroke="black" points="87.4439,-77.1265 77.2556,-74.2196 83.4074,-82.8455 87.4439,-77.1265"/>
<text text-anchor="middle" x="182" y="-132.4" font-family="Times,serif" font-size="7.00">cf=0</text>
</g>
<!-- 5 -->
<g id="node6" class="node"><title>5</title>
<path fill="none" stroke="black" d="M332,-76C332,-76 155,-76 155,-76 149,-76 143,-70 143,-64 143,-64 143,-48 143,-48 143,-42 149,-36 155,-36 155,-36 332,-36 332,-36 338,-36 344,-42 344,-48 344,-48 344,-64 344,-64 344,-70 338,-76 332,-76"/>
<text text-anchor="start" x="151" y="-66.4" font-family="Source Code Pro" font-size="7.00">0x402081 &#160;mov byte ptr [0x403ca7], al</text>
<text text-anchor="start" x="151" y="-58.4" font-family="Source Code Pro" font-size="7.00">0x402086 &#160;shl eax, 0x1</text>
<text text-anchor="start" x="151" y="-50.4" font-family="Source Code Pro" font-size="7.00">0x402088 &#160;mov bx, word ptr [eax+0x403048]</text>
<text text-anchor="start" x="151" y="-42.4" font-family="Source Code Pro" font-size="7.00">0x40208f &#160;mov word ptr [0x403042], bx</text>
</g>
<!-- 3&#45;&gt;5 -->
<g id="edge6" class="edge"><title>3&#45;&gt;5</title>
<path fill="none" stroke="black" stroke-dasharray="5,2" d="M243.5,-155.884C243.5,-137.578 243.5,-108.216 243.5,-86.2355"/>
<polygon fill="black" stroke="black" points="247,-86.1184 243.5,-76.1185 240,-86.1185 247,-86.1184"/>
<text text-anchor="middle" x="250" y="-132.4" font-family="Times,serif" font-size="7.00">cf=1</text>
</g>
<!-- 4&#45;&gt;5 -->
<g id="edge7" class="edge"><title>4&#45;&gt;5</title>
<path fill="none" stroke="black" d="M107.309,-56C115.848,-56 124.388,-56 132.928,-56"/>
<polygon fill="black" stroke="black" points="132.952,-59.5001 142.952,-56 132.952,-52.5001 132.952,-59.5001"/>
</g>
<!-- 5&#45;&gt;6 -->
<g id="edge8" class="edge"><title>5&#45;&gt;6</title>
<path fill="none" stroke="black" d="M344.23,-56C352.541,-56 360.851,-56 369.161,-56"/>
<polygon fill="black" stroke="black" points="369.298,-59.5001 379.298,-56 369.298,-52.5001 369.298,-59.5001"/>
</g>
<!-- 7 -->
<g id="node8" class="node"><title>7</title>
<path fill="none" stroke="black" stroke-dasharray="1,5" d="M765.5,-74C765.5,-74 637.5,-74 637.5,-74 631.5,-74 625.5,-68 625.5,-62 625.5,-62 625.5,-50 625.5,-50 625.5,-44 631.5,-38 637.5,-38 637.5,-38 765.5,-38 765.5,-38 771.5,-38 777.5,-44 777.5,-50 777.5,-50 777.5,-62 777.5,-62 777.5,-68 771.5,-74 765.5,-74"/>
<text text-anchor="start" x="633.5" y="-54.4" font-family="Source Code Pro" font-size="7.00">0x4020c7 &#160;test ebx, 0xc0000000</text>
</g>
<!-- 6&#45;&gt;7 -->
<g id="edge9" class="edge"><title>6&#45;&gt;7</title>
<path fill="none" stroke="black" stroke-dasharray="5,2" d="M589.609,-56C598.196,-56 606.783,-56 615.369,-56"/>
<polygon fill="black" stroke="black" points="615.449,-59.5001 625.449,-56 615.449,-52.5001 615.449,-59.5001"/>
</g>
<!-- 7&#45;&gt;0 -->
<g id="edge10" class="edge"><title>7&#45;&gt;0</title>
<path fill="none" stroke="black" stroke-dasharray="1,5" d="M689.135,-74.1262C674.619,-95.9591 652.5,-135.398 652.5,-173 652.5,-363 652.5,-363 652.5,-363 652.5,-383.428 637.689,-399.534 620.975,-411.206"/>
<polygon fill="black" stroke="black" points="618.64,-408.547 612.129,-416.906 622.431,-414.432 618.64,-408.547"/>
</g>
</g>
</svg>
