<?xml version="1.0" encoding="UTF-8" standalone="no"?>
<!DOCTYPE svg PUBLIC "-//W3C//DTD SVG 1.1//EN"
 "http://www.w3.org/Graphics/SVG/1.1/DTD/svg11.dtd">
<!-- Generated by graphviz version 2.38.0 (20140413.2041)
 -->
<!-- Title: G Pages: 1 -->
<svg width="462pt" height="521pt"
 viewBox="0.00 0.00 462.00 521.00" xmlns="http://www.w3.org/2000/svg" xmlns:xlink="http://www.w3.org/1999/xlink">
<g id="graph0" class="graph" transform="scale(1 1) rotate(0) translate(4 517)">
<title>G</title>
<polygon fill="white" stroke="none" points="-4,4 -4,-517 458,-517 458,4 -4,4"/>
<!-- 0 -->
<g id="node1" class="node"><title>0</title>
<path fill="cornflowerblue" stroke="black" d="M423.5,-513C423.5,-513 153.5,-513 153.5,-513 147.5,-513 141.5,-507 141.5,-501 141.5,-501 141.5,-489 141.5,-489 141.5,-483 147.5,-477 153.5,-477 153.5,-477 423.5,-477 423.5,-477 429.5,-477 435.5,-483 435.5,-489 435.5,-489 435.5,-501 435.5,-501 435.5,-507 429.5,-513 423.5,-513"/>
<text text-anchor="start" x="149.5" y="-498.4" font-family="Source Code Pro" font-size="12.00">0x402048 &#160;mov al, byte ptr [0x403041]</text>
<text text-anchor="start" x="149.5" y="-485.4" font-family="Source Code Pro" font-size="12.00">0x40204d &#160;inc al</text>
</g>
<!-- 1 -->
<g id="node2" class="node"><title>1</title>
<path fill="none" stroke="black" d="M363.5,-440C363.5,-440 213.5,-440 213.5,-440 207.5,-440 201.5,-434 201.5,-428 201.5,-428 201.5,-416 201.5,-416 201.5,-410 207.5,-404 213.5,-404 213.5,-404 363.5,-404 363.5,-404 369.5,-404 375.5,-410 375.5,-416 375.5,-416 375.5,-428 375.5,-428 375.5,-434 369.5,-440 363.5,-440"/>
<text text-anchor="start" x="209.5" y="-425.4" font-family="Source Code Pro" font-size="12.00">... &#160;&#160;&#160;&#160;&#160;&#160;...</text>
<text text-anchor="start" x="209.5" y="-412.4" font-family="Source Code Pro" font-size="12.00">0x404568 &#160;cmp al, 0x5</text>
</g>
<!-- 0&#45;&gt;1 -->
<g id="edge1" class="edge"><title>0&#45;&gt;1</title>
<path fill="none" stroke="black" d="M288.5,-476.813C288.5,-468.789 288.5,-459.047 288.5,-450.069"/>
<polygon fill="black" stroke="black" points="292,-450.029 288.5,-440.029 285,-450.029 292,-450.029"/>
</g>
<!-- 2 -->
<g id="node3" class="node"><title>2</title>
<path fill="none" stroke="black" d="M305,-353C305,-353 12,-353 12,-353 6,-353 0,-347 0,-341 0,-341 0,-318 0,-318 0,-312 6,-306 12,-306 12,-306 305,-306 305,-306 311,-306 317,-312 317,-318 317,-318 317,-341 317,-341 317,-347 311,-353 305,-353"/>
<text text-anchor="start" x="8" y="-339.4" font-family="Source Code Pro" font-size="12.00">... &#160;&#160;&#160;&#160;&#160;&#160;...</text>
<text text-anchor="start" x="8" y="-326.4" font-family="Source Code Pro" font-size="12.00">0x40205f &#160;movzx eax, byte ptr [0x403ca7]</text>
<text text-anchor="start" x="8" y="-313.4" font-family="Source Code Pro" font-size="12.00">... &#160;&#160;&#160;&#160;&#160;&#160;...</text>
</g>
<!-- 1&#45;&gt;2 -->
<g id="edge2" class="edge"><title>1&#45;&gt;2</title>
<path fill="none" stroke="black" stroke-dasharray="5,2" d="M264.048,-403.978C245.867,-391.321 220.64,-373.759 199.407,-358.978"/>
<polygon fill="black" stroke="black" points="201.396,-356.098 191.189,-353.257 197.397,-361.843 201.396,-356.098"/>
<text text-anchor="middle" x="248.5" y="-374.8" font-family="Times,serif" font-size="14.00">zf=1</text>
</g>
<!-- 6 -->
<g id="node7" class="node"><title>6</title>
<path fill="gainsboro" stroke="black" d="M442,-36C442,-36 149,-36 149,-36 143,-36 137,-30 137,-24 137,-24 137,-12 137,-12 137,-6 143,-0 149,-0 149,-0 442,-0 442,-0 448,-0 454,-6 454,-12 454,-12 454,-24 454,-24 454,-30 448,-36 442,-36"/>
<text text-anchor="start" x="145" y="-21.4" font-family="Source Code Pro" font-size="12.00">0x402096 &#160;movzx eax, byte ptr [0x403ca7]</text>
<text text-anchor="start" x="145" y="-8.4" font-family="Source Code Pro" font-size="12.00">... &#160;&#160;&#160;&#160;&#160;&#160;...</text>
</g>
<!-- 1&#45;&gt;6 -->
<g id="edge3" class="edge"><title>1&#45;&gt;6</title>
<path fill="none" stroke="black" stroke-dasharray="5,2" d="M307.48,-403.944C324.062,-387.086 345.5,-359.653 345.5,-330.5 345.5,-330.5 345.5,-330.5 345.5,-90 345.5,-72.3962 335.098,-56.0802 323.783,-43.5395"/>
<polygon fill="black" stroke="black" points="326.179,-40.9829 316.705,-36.2413 321.154,-45.8564 326.179,-40.9829"/>
<text text-anchor="middle" x="358.5" y="-203.8" font-family="Times,serif" font-size="14.00">zf=0</text>
</g>
<!-- 3 -->
<g id="node4" class="node"><title>3</title>
<path fill="none" stroke="black" d="M233.5,-269C233.5,-269 83.5,-269 83.5,-269 77.5,-269 71.5,-263 71.5,-257 71.5,-257 71.5,-245 71.5,-245 71.5,-239 77.5,-233 83.5,-233 83.5,-233 233.5,-233 233.5,-233 239.5,-233 245.5,-239 245.5,-245 245.5,-245 245.5,-257 245.5,-257 245.5,-263 239.5,-269 233.5,-269"/>
<text text-anchor="start" x="79.5" y="-254.4" font-family="Source Code Pro" font-size="12.00">0x4046a8 &#160;inc al</text>
<text text-anchor="start" x="79.5" y="-241.4" font-family="Source Code Pro" font-size="12.00">0x4046aa &#160;cmp al, 0x7</text>
</g>
<!-- 2&#45;&gt;3 -->
<g id="edge4" class="edge"><title>2&#45;&gt;3</title>
<path fill="none" stroke="black" d="M158.5,-305.961C158.5,-297.564 158.5,-287.944 158.5,-279.174"/>
<polygon fill="black" stroke="black" points="162,-279.037 158.5,-269.037 155,-279.037 162,-279.037"/>
</g>
<!-- 4 -->
<g id="node5" class="node"><title>4</title>
<path fill="none" stroke="black" d="M168,-182C168,-182 25,-182 25,-182 19,-182 13,-176 13,-170 13,-170 13,-158 13,-158 13,-152 19,-146 25,-146 25,-146 168,-146 168,-146 174,-146 180,-152 180,-158 180,-158 180,-170 180,-170 180,-176 174,-182 168,-182"/>
<text text-anchor="start" x="21" y="-160.9" font-family="Source Code Pro" font-size="12.00">0x40207f &#160;xor al, al</text>
</g>
<!-- 3&#45;&gt;4 -->
<g id="edge5" class="edge"><title>3&#45;&gt;4</title>
<path fill="none" stroke="black" stroke-dasharray="5,2" d="M145.953,-232.799C137.045,-220.587 124.941,-203.992 114.938,-190.278"/>
<polygon fill="black" stroke="black" points="117.749,-188.192 109.028,-182.175 112.093,-192.317 117.749,-188.192"/>
<text text-anchor="middle" x="144.5" y="-203.8" font-family="Times,serif" font-size="14.00">cf=0</text>
</g>
<!-- 5 -->
<g id="node6" class="node"><title>5</title>
<path fill="none" stroke="black" d="M305.5,-109C305.5,-109 35.5,-109 35.5,-109 29.5,-109 23.5,-103 23.5,-97 23.5,-97 23.5,-85 23.5,-85 23.5,-79 29.5,-73 35.5,-73 35.5,-73 305.5,-73 305.5,-73 311.5,-73 317.5,-79 317.5,-85 317.5,-85 317.5,-97 317.5,-97 317.5,-103 311.5,-109 305.5,-109"/>
<text text-anchor="start" x="31.5" y="-94.4" font-family="Source Code Pro" font-size="12.00">0x402081 &#160;mov byte ptr [0x403ca7], al</text>
<text text-anchor="start" x="31.5" y="-81.4" font-family="Source Code Pro" font-size="12.00">... &#160;&#160;&#160;&#160;&#160;&#160;...</text>
</g>
<!-- 3&#45;&gt;5 -->
<g id="edge6" class="edge"><title>3&#45;&gt;5</title>
<path fill="none" stroke="black" stroke-dasharray="5,2" d="M168.502,-232.782C175.654,-219.424 184.668,-200.181 188.5,-182 192.972,-160.787 187.606,-136.701 181.596,-118.787"/>
<polygon fill="black" stroke="black" points="184.848,-117.486 178.152,-109.275 178.266,-119.87 184.848,-117.486"/>
<text text-anchor="middle" x="203.5" y="-160.3" font-family="Times,serif" font-size="14.00">cf=1</text>
</g>
<!-- 4&#45;&gt;5 -->
<g id="edge7" class="edge"><title>4&#45;&gt;5</title>
<path fill="none" stroke="black" d="M114.413,-145.813C123.685,-136.917 135.158,-125.909 145.307,-116.172"/>
<polygon fill="black" stroke="black" points="147.959,-118.478 152.752,-109.029 143.113,-113.427 147.959,-118.478"/>
</g>
<!-- 5&#45;&gt;6 -->
<g id="edge8" class="edge"><title>5&#45;&gt;6</title>
<path fill="none" stroke="black" d="M200.441,-72.9937C217.17,-63.4914 238.218,-51.5363 256.253,-41.2924"/>
<polygon fill="black" stroke="black" points="258.404,-44.0959 265.37,-36.1136 254.947,-38.0092 258.404,-44.0959"/>
</g>
</g>
</svg>
