<?xml version="1.0" encoding="UTF-8" standalone="no"?>
<!DOCTYPE svg PUBLIC "-//W3C//DTD SVG 1.1//EN"
 "http://www.w3.org/Graphics/SVG/1.1/DTD/svg11.dtd">
<!-- Generated by graphviz version 2.38.0 (20140413.2041)
 -->
<!-- Title: G Pages: 1 -->
<svg width="495pt" height="277pt"
 viewBox="0.00 0.00 495.00 277.00" xmlns="http://www.w3.org/2000/svg" xmlns:xlink="http://www.w3.org/1999/xlink">
<g id="graph0" class="graph" transform="scale(1 1) rotate(0) translate(4 273)">
<title>G</title>
<polygon fill="white" stroke="none" points="-4,4 -4,-273 491,-273 491,4 -4,4"/>
<!-- 0 -->
<g id="node1" class="node"><title>0</title>
<path fill="cornflowerblue" stroke="black" d="M475,-269C475,-269 205,-269 205,-269 199,-269 193,-263 193,-257 193,-257 193,-245 193,-245 193,-239 199,-233 205,-233 205,-233 475,-233 475,-233 481,-233 487,-239 487,-245 487,-245 487,-257 487,-257 487,-263 481,-269 475,-269"/>
<text text-anchor="start" x="201" y="-254.4" font-family="Source Code Pro" font-size="12.00">0x402048 &#160;mov al, byte ptr [0x403041]</text>
<text text-anchor="start" x="201" y="-241.4" font-family="Source Code Pro" font-size="12.00">0x40204d &#160;inc al</text>
</g>
<!-- 1 -->
<g id="node2" class="node"><title>1</title>
<path fill="none" stroke="black" d="M344,-196C344,-196 74,-196 74,-196 68,-196 62,-190 62,-184 62,-184 62,-172 62,-172 62,-166 68,-160 74,-160 74,-160 344,-160 344,-160 350,-160 356,-166 356,-172 356,-172 356,-184 356,-184 356,-190 350,-196 344,-196"/>
<text text-anchor="start" x="70" y="-181.4" font-family="Source Code Pro" font-size="12.00">0x404563 &#160;mov byte ptr [0x403041], al</text>
<text text-anchor="start" x="70" y="-168.4" font-family="Source Code Pro" font-size="12.00">0x404568 &#160;cmp al, 0x5</text>
</g>
<!-- 0&#45;&gt;1 -->
<g id="edge1" class="edge"><title>0&#45;&gt;1</title>
<path fill="none" stroke="black" d="M308.622,-232.994C290.929,-223.404 268.627,-211.317 249.612,-201.011"/>
<polygon fill="black" stroke="black" points="251.035,-197.802 240.576,-196.114 247.7,-203.956 251.035,-197.802"/>
</g>
<!-- 2 -->
<g id="node3" class="node"><title>2</title>
<path fill="none" stroke="black" d="M282,-109C282,-109 12,-109 12,-109 6,-109 0,-103 0,-97 0,-97 0,-85 0,-85 0,-79 6,-73 12,-73 12,-73 282,-73 282,-73 288,-73 294,-79 294,-85 294,-85 294,-97 294,-97 294,-103 288,-109 282,-109"/>
<text text-anchor="start" x="8" y="-94.4" font-family="Source Code Pro" font-size="12.00">0x402058 &#160;xor eax, eax</text>
<text text-anchor="start" x="8" y="-81.4" font-family="Source Code Pro" font-size="12.00">0x40205a &#160;mov byte ptr [0x403041], al</text>
</g>
<!-- 1&#45;&gt;2 -->
<g id="edge2" class="edge"><title>1&#45;&gt;2</title>
<path fill="none" stroke="black" stroke-dasharray="5,2" d="M196.453,-159.799C187.545,-147.587 175.441,-130.992 165.438,-117.278"/>
<polygon fill="black" stroke="black" points="168.249,-115.192 159.528,-109.175 162.593,-119.317 168.249,-115.192"/>
<text text-anchor="middle" x="195" y="-130.8" font-family="Times,serif" font-size="14.00">zf=1</text>
</g>
<!-- 3 -->
<g id="node4" class="node"><title>3</title>
<path fill="gainsboro" stroke="black" d="M345,-36C345,-36 315,-36 315,-36 309,-36 303,-30 303,-24 303,-24 303,-12 303,-12 303,-6 309,-0 315,-0 315,-0 345,-0 345,-0 351,-0 357,-6 357,-12 357,-12 357,-24 357,-24 357,-30 351,-36 345,-36"/>
<text text-anchor="middle" x="330" y="-14.9" font-family="Source Code Pro" font-size="12.00">...</text>
</g>
<!-- 1&#45;&gt;3 -->
<g id="edge3" class="edge"><title>1&#45;&gt;3</title>
<path fill="none" stroke="black" stroke-dasharray="5,2" d="M242.955,-159.846C263.085,-148.072 287.595,-130.67 303,-109 316.256,-90.3522 323.092,-65.1232 326.563,-46.1215"/>
<polygon fill="black" stroke="black" points="330.055,-46.4506 328.202,-36.019 323.145,-45.329 330.055,-46.4506"/>
<text text-anchor="middle" x="333" y="-87.3" font-family="Times,serif" font-size="14.00">zf=0</text>
</g>
<!-- 2&#45;&gt;3 -->
<g id="edge4" class="edge"><title>2&#45;&gt;3</title>
<path fill="none" stroke="black" d="M190.833,-72.9937C222.183,-60.8305 263.891,-44.6487 293.449,-33.181"/>
<polygon fill="black" stroke="black" points="294.918,-36.3654 302.975,-29.4852 292.386,-29.8394 294.918,-36.3654"/>
</g>
<!-- 3&#45;&gt;0 -->
<g id="edge5" class="edge"><title>3&#45;&gt;0</title>
<path fill="none" stroke="black" stroke-dasharray="1,5" d="M338.112,-36.1377C352.052,-67.8011 377.869,-137.571 365,-196 362.933,-205.383 359.069,-215.075 354.986,-223.614"/>
<polygon fill="black" stroke="black" points="351.785,-222.186 350.367,-232.686 358.023,-225.362 351.785,-222.186"/>
</g>
</g>
</svg>
