<?xml version="1.0" encoding="UTF-8" standalone="no"?>
<!DOCTYPE svg PUBLIC "-//W3C//DTD SVG 1.1//EN"
 "http://www.w3.org/Graphics/SVG/1.1/DTD/svg11.dtd">
<!-- Generated by graphviz version 2.38.0 (20140413.2041)
 -->
<!-- Title: G Pages: 1 -->
<svg width="336pt" height="496pt"
 viewBox="0.00 0.00 336.00 496.00" xmlns="http://www.w3.org/2000/svg" xmlns:xlink="http://www.w3.org/1999/xlink">
<g id="graph0" class="graph" transform="scale(1 1) rotate(0) translate(4 492)">
<title>G</title>
<polygon fill="white" stroke="none" points="-4,4 -4,-492 332,-492 332,4 -4,4"/>
<!-- 0 -->
<g id="node1" class="node"><title>0</title>
<path fill="cornflowerblue" stroke="black" d="M316,-488C316,-488 157,-488 157,-488 151,-488 145,-482 145,-476 145,-476 145,-464 145,-464 145,-458 151,-452 157,-452 157,-452 316,-452 316,-452 322,-452 328,-458 328,-464 328,-464 328,-476 328,-476 328,-482 322,-488 316,-488"/>
<text text-anchor="start" x="153" y="-472.4" font-family="Source Code Pro" font-size="7.00">0x402048 &#160;mov al, byte ptr [0x403041]</text>
<text text-anchor="start" x="153" y="-464.4" font-family="Source Code Pro" font-size="7.00">0x40204d &#160;inc al</text>
</g>
<!-- 1 -->
<g id="node2" class="node"><title>1</title>
<path fill="none" stroke="black" d="M223,-415C223,-415 136,-415 136,-415 130,-415 124,-409 124,-403 124,-403 124,-391 124,-391 124,-385 130,-379 136,-379 136,-379 223,-379 223,-379 229,-379 235,-385 235,-391 235,-391 235,-403 235,-403 235,-409 229,-415 223,-415"/>
<text text-anchor="start" x="132" y="-395.4" font-family="Source Code Pro" font-size="7.00">0x404568 &#160;cmp al, 0x5</text>
</g>
<!-- 0&#45;&gt;1 -->
<g id="edge1" class="edge"><title>0&#45;&gt;1</title>
<path fill="none" stroke="black" d="M222.702,-451.813C215.77,-443.179 207.241,-432.555 199.598,-423.034"/>
<polygon fill="black" stroke="black" points="202.161,-420.636 193.171,-415.029 196.702,-425.018 202.161,-420.636"/>
</g>
<!-- 2 -->
<g id="node3" class="node"><title>2</title>
<path fill="none" stroke="black" d="M185,-335C185,-335 12,-335 12,-335 6,-335 0,-329 0,-323 0,-323 0,-311 0,-311 0,-305 6,-299 12,-299 12,-299 185,-299 185,-299 191,-299 197,-305 197,-311 197,-311 197,-323 197,-323 197,-329 191,-335 185,-335"/>
<text text-anchor="start" x="8" y="-315.4" font-family="Source Code Pro" font-size="7.00">0x40205f &#160;movzx eax, byte ptr [0x403ca7]</text>
</g>
<!-- 1&#45;&gt;2 -->
<g id="edge2" class="edge"><title>1&#45;&gt;2</title>
<path fill="none" stroke="black" stroke-dasharray="5,2" d="M161.523,-378.689C150.407,-367.985 135.972,-354.084 123.722,-342.288"/>
<polygon fill="black" stroke="black" points="126.057,-339.678 116.426,-335.262 121.202,-344.72 126.057,-339.678"/>
<text text-anchor="middle" x="148" y="-355.4" font-family="Times,serif" font-size="7.00">zf=1</text>
</g>
<!-- 6 -->
<g id="node7" class="node"><title>6</title>
<path fill="gainsboro" stroke="black" d="M312,-36C312,-36 139,-36 139,-36 133,-36 127,-30 127,-24 127,-24 127,-12 127,-12 127,-6 133,-0 139,-0 139,-0 312,-0 312,-0 318,-0 324,-6 324,-12 324,-12 324,-24 324,-24 324,-30 318,-36 312,-36"/>
<text text-anchor="start" x="135" y="-16.4" font-family="Source Code Pro" font-size="7.00">0x402096 &#160;movzx eax, byte ptr [0x403ca7]</text>
</g>
<!-- 1&#45;&gt;6 -->
<g id="edge3" class="edge"><title>1&#45;&gt;6</title>
<path fill="none" stroke="black" stroke-dasharray="5,2" d="M196.891,-378.788C209.917,-364.005 225.5,-341.425 225.5,-318 225.5,-318 225.5,-318 225.5,-90 225.5,-75.6513 225.5,-59.6715 225.5,-46.5107"/>
<polygon fill="black" stroke="black" points="229,-46.2164 225.5,-36.2164 222,-46.2164 229,-46.2164"/>
<text text-anchor="middle" x="232" y="-202.4" font-family="Times,serif" font-size="7.00">zf=0</text>
</g>
<!-- 3 -->
<g id="node4" class="node"><title>3</title>
<path fill="none" stroke="black" d="M142,-262C142,-262 55,-262 55,-262 49,-262 43,-256 43,-250 43,-250 43,-238 43,-238 43,-232 49,-226 55,-226 55,-226 142,-226 142,-226 148,-226 154,-232 154,-238 154,-238 154,-250 154,-250 154,-256 148,-262 142,-262"/>
<text text-anchor="start" x="51" y="-246.4" font-family="Source Code Pro" font-size="7.00">0x4046a8 &#160;inc al</text>
<text text-anchor="start" x="51" y="-238.4" font-family="Source Code Pro" font-size="7.00">0x4046aa &#160;cmp al, 0x7</text>
</g>
<!-- 2&#45;&gt;3 -->
<g id="edge4" class="edge"><title>2&#45;&gt;3</title>
<path fill="none" stroke="black" d="M98.5,-298.813C98.5,-290.789 98.5,-281.047 98.5,-272.069"/>
<polygon fill="black" stroke="black" points="102,-272.029 98.5,-262.029 95.0001,-272.029 102,-272.029"/>
</g>
<!-- 4 -->
<g id="node5" class="node"><title>4</title>
<path fill="none" stroke="black" d="M109,-182C109,-182 26,-182 26,-182 20,-182 14,-176 14,-170 14,-170 14,-158 14,-158 14,-152 20,-146 26,-146 26,-146 109,-146 109,-146 115,-146 121,-152 121,-158 121,-158 121,-170 121,-170 121,-176 115,-182 109,-182"/>
<text text-anchor="start" x="22" y="-162.4" font-family="Source Code Pro" font-size="7.00">0x40207f &#160;xor al, al</text>
</g>
<!-- 3&#45;&gt;4 -->
<g id="edge5" class="edge"><title>3&#45;&gt;4</title>
<path fill="none" stroke="black" stroke-dasharray="5,2" d="M91.6201,-225.689C87.6468,-215.692 82.5653,-202.906 78.0921,-191.651"/>
<polygon fill="black" stroke="black" points="81.3066,-190.263 74.3607,-182.262 74.8016,-192.848 81.3066,-190.263"/>
<text text-anchor="middle" x="91" y="-202.4" font-family="Times,serif" font-size="7.00">cf=0</text>
</g>
<!-- 5 -->
<g id="node6" class="node"><title>5</title>
<path fill="none" stroke="black" d="M185,-109C185,-109 26,-109 26,-109 20,-109 14,-103 14,-97 14,-97 14,-85 14,-85 14,-79 20,-73 26,-73 26,-73 185,-73 185,-73 191,-73 197,-79 197,-85 197,-85 197,-97 197,-97 197,-103 191,-109 185,-109"/>
<text text-anchor="start" x="22" y="-89.4" font-family="Source Code Pro" font-size="7.00">0x402081 &#160;mov byte ptr [0x403ca7], al</text>
</g>
<!-- 3&#45;&gt;5 -->
<g id="edge6" class="edge"><title>3&#45;&gt;5</title>
<path fill="none" stroke="black" stroke-dasharray="5,2" d="M109.911,-225.971C117.097,-214.184 125.709,-197.827 129.5,-182 133.227,-166.44 132.821,-161.651 129.5,-146 127.519,-136.667 123.81,-126.988 119.89,-118.447"/>
<polygon fill="black" stroke="black" points="122.989,-116.816 115.455,-109.366 116.699,-119.887 122.989,-116.816"/>
<text text-anchor="middle" x="139" y="-162.4" font-family="Times,serif" font-size="7.00">cf=1</text>
</g>
<!-- 4&#45;&gt;5 -->
<g id="edge7" class="edge"><title>4&#45;&gt;5</title>
<path fill="none" stroke="black" d="M76.6987,-145.813C81.1797,-137.441 86.6621,-127.197 91.6366,-117.903"/>
<polygon fill="black" stroke="black" points="94.753,-119.497 96.386,-109.029 88.5813,-116.194 94.753,-119.497"/>
</g>
<!-- 5&#45;&gt;6 -->
<g id="edge8" class="edge"><title>5&#45;&gt;6</title>
<path fill="none" stroke="black" d="M134.243,-72.9937C150.303,-63.4914 170.509,-51.5363 187.823,-41.2924"/>
<polygon fill="black" stroke="black" points="189.751,-44.218 196.576,-36.1136 186.187,-38.1935 189.751,-44.218"/>
</g>
<!-- 6&#45;&gt;0 -->
<g id="edge9" class="edge"><title>6&#45;&gt;0</title>
<path fill="none" stroke="black" stroke-dasharray="1,5" d="M240.737,-36.0356C251.309,-49.6423 263.5,-69.7278 263.5,-90 263.5,-398 263.5,-398 263.5,-398 263.5,-413.448 257.847,-429.625 251.714,-442.628"/>
<polygon fill="black" stroke="black" points="248.419,-441.388 247.016,-451.89 254.661,-444.555 248.419,-441.388"/>
</g>
</g>
</svg>
