<?xml version="1.0" encoding="UTF-8" standalone="no"?>
<!DOCTYPE svg PUBLIC "-//W3C//DTD SVG 1.1//EN"
 "http://www.w3.org/Graphics/SVG/1.1/DTD/svg11.dtd">
<!-- Generated by graphviz version 2.38.0 (20140413.2041)
 -->
<!-- Title: G Pages: 1 -->
<svg width="358pt" height="677pt"
 viewBox="0.00 0.00 358.00 677.00" xmlns="http://www.w3.org/2000/svg" xmlns:xlink="http://www.w3.org/1999/xlink">
<g id="graph0" class="graph" transform="scale(1 1) rotate(0) translate(4 673)">
<title>G</title>
<polygon fill="white" stroke="none" points="-4,4 -4,-673 354,-673 354,4 -4,4"/>
<!-- 0 -->
<g id="node1" class="node"><title>0</title>
<path fill="cornflowerblue" stroke="black" d="M338,-669C338,-669 179,-669 179,-669 173,-669 167,-663 167,-657 167,-657 167,-645 167,-645 167,-639 173,-633 179,-633 179,-633 338,-633 338,-633 344,-633 350,-639 350,-645 350,-645 350,-657 350,-657 350,-663 344,-669 338,-669"/>
<text text-anchor="start" x="175" y="-653.4" font-family="Source Code Pro" font-size="7.00">0x402048 &#160;mov al, byte ptr [0x403041]</text>
<text text-anchor="start" x="175" y="-645.4" font-family="Source Code Pro" font-size="7.00">0x40204d &#160;inc al</text>
</g>
<!-- 1 -->
<g id="node2" class="node"><title>1</title>
<path fill="none" stroke="black" d="M254,-596C254,-596 95,-596 95,-596 89,-596 83,-590 83,-584 83,-584 83,-572 83,-572 83,-566 89,-560 95,-560 95,-560 254,-560 254,-560 260,-560 266,-566 266,-572 266,-572 266,-584 266,-584 266,-590 260,-596 254,-596"/>
<text text-anchor="start" x="91" y="-580.4" font-family="Source Code Pro" font-size="7.00">0x404563 &#160;mov byte ptr [0x403041], al</text>
<text text-anchor="start" x="91" y="-572.4" font-family="Source Code Pro" font-size="7.00">0x404568 &#160;cmp al, 0x5</text>
</g>
<!-- 0&#45;&gt;1 -->
<g id="edge1" class="edge"><title>0&#45;&gt;1</title>
<path fill="none" stroke="black" d="M238.166,-632.813C227.435,-623.743 214.106,-612.477 202.422,-602.6"/>
<polygon fill="black" stroke="black" points="204.544,-599.811 194.647,-596.029 200.025,-605.157 204.544,-599.811"/>
</g>
<!-- 2 -->
<g id="node3" class="node"><title>2</title>
<path fill="none" stroke="black" d="M189,-516C189,-516 12,-516 12,-516 6,-516 0,-510 0,-504 0,-504 0,-464 0,-464 0,-458 6,-452 12,-452 12,-452 189,-452 189,-452 195,-452 201,-458 201,-464 201,-464 201,-504 201,-504 201,-510 195,-516 189,-516"/>
<text text-anchor="start" x="8" y="-506.4" font-family="Source Code Pro" font-size="7.00">0x402058 &#160;xor eax, eax</text>
<text text-anchor="start" x="8" y="-498.4" font-family="Source Code Pro" font-size="7.00">0x40205a &#160;mov byte ptr [0x403041], al</text>
<text text-anchor="start" x="8" y="-490.4" font-family="Source Code Pro" font-size="7.00">0x40205f &#160;movzx eax, byte ptr [0x403ca7]</text>
<text text-anchor="start" x="8" y="-482.4" font-family="Source Code Pro" font-size="7.00">0x402066 &#160;mov bx, word ptr [0x403042]</text>
<text text-anchor="start" x="8" y="-474.4" font-family="Source Code Pro" font-size="7.00">0x40206d &#160;movzx ecx, al</text>
<text text-anchor="start" x="8" y="-466.4" font-family="Source Code Pro" font-size="7.00">0x402070 &#160;shl cl, 0x1</text>
<text text-anchor="start" x="8" y="-458.4" font-family="Source Code Pro" font-size="7.00">0x402072 &#160;mov word ptr [ecx+0x403048], bx</text>
</g>
<!-- 1&#45;&gt;2 -->
<g id="edge2" class="edge"><title>1&#45;&gt;2</title>
<path fill="none" stroke="black" stroke-dasharray="5,2" d="M160.581,-559.696C152.476,-549.619 141.91,-536.483 131.904,-524.042"/>
<polygon fill="black" stroke="black" points="134.435,-521.605 125.44,-516.007 128.981,-525.993 134.435,-521.605"/>
<text text-anchor="middle" x="153" y="-536.4" font-family="Times,serif" font-size="7.00">zf=1</text>
</g>
<!-- 6 -->
<g id="node7" class="node"><title>6</title>
<path fill="gainsboro" stroke="black" d="M254.5,-185C254.5,-185 68.5,-185 68.5,-185 62.5,-185 56.5,-179 56.5,-173 56.5,-173 56.5,-85 56.5,-85 56.5,-79 62.5,-73 68.5,-73 68.5,-73 254.5,-73 254.5,-73 260.5,-73 266.5,-79 266.5,-85 266.5,-85 266.5,-173 266.5,-173 266.5,-179 260.5,-185 254.5,-185"/>
<text text-anchor="start" x="64.5" y="-175.4" font-family="Source Code Pro" font-size="7.00">0x402096 &#160;movzx eax, byte ptr [0x403ca7]</text>
<text text-anchor="start" x="64.5" y="-167.4" font-family="Source Code Pro" font-size="7.00">0x40209d &#160;shl eax, 0x2</text>
<text text-anchor="start" x="64.5" y="-159.4" font-family="Source Code Pro" font-size="7.00">0x4020a0 &#160;mov ebx, dword ptr [eax+0x40268b]</text>
<text text-anchor="start" x="64.5" y="-151.4" font-family="Source Code Pro" font-size="7.00">0x4020a6 &#160;mov ax, word ptr [0x403042]</text>
<text text-anchor="start" x="64.5" y="-143.4" font-family="Source Code Pro" font-size="7.00">0x4020ac &#160;xor edx, edx</text>
<text text-anchor="start" x="64.5" y="-135.4" font-family="Source Code Pro" font-size="7.00">0x4020ae &#160;mov ecx, 0x8</text>
<text text-anchor="start" x="64.5" y="-127.4" font-family="Source Code Pro" font-size="7.00">0x4020b3 &#160;div ecx</text>
<text text-anchor="start" x="64.5" y="-119.4" font-family="Source Code Pro" font-size="7.00">0x4020b5 &#160;add ebx, eax</text>
<text text-anchor="start" x="64.5" y="-111.4" font-family="Source Code Pro" font-size="7.00">0x4020b7 &#160;mov ebx, dword ptr [ebx]</text>
<text text-anchor="start" x="64.5" y="-103.4" font-family="Source Code Pro" font-size="7.00">0x4020b9 &#160;bswap ebx</text>
<text text-anchor="start" x="64.5" y="-95.4" font-family="Source Code Pro" font-size="7.00">0x4020bb &#160;mov cl, dl</text>
<text text-anchor="start" x="64.5" y="-87.4" font-family="Source Code Pro" font-size="7.00">0x4020bd &#160;shl ebx, cl</text>
<text text-anchor="start" x="64.5" y="-79.4" font-family="Source Code Pro" font-size="7.00">0x4020bf &#160;add word ptr [0x403042], 0x2</text>
</g>
<!-- 1&#45;&gt;6 -->
<g id="edge3" class="edge"><title>1&#45;&gt;6</title>
<path fill="none" stroke="black" stroke-dasharray="5,2" d="M192.509,-559.802C208.549,-542.556 229.5,-514.402 229.5,-485 229.5,-485 229.5,-485 229.5,-241 229.5,-224.624 224.052,-208.626 216.24,-194.103"/>
<polygon fill="black" stroke="black" points="219.151,-192.146 211.098,-185.261 213.1,-195.665 219.151,-192.146"/>
<text text-anchor="middle" x="236" y="-355.4" font-family="Times,serif" font-size="7.00">zf=0</text>
</g>
<!-- 3 -->
<g id="node4" class="node"><title>3</title>
<path fill="none" stroke="black" d="M144,-415C144,-415 57,-415 57,-415 51,-415 45,-409 45,-403 45,-403 45,-391 45,-391 45,-385 51,-379 57,-379 57,-379 144,-379 144,-379 150,-379 156,-385 156,-391 156,-391 156,-403 156,-403 156,-409 150,-415 144,-415"/>
<text text-anchor="start" x="53" y="-399.4" font-family="Source Code Pro" font-size="7.00">0x4046a8 &#160;inc al</text>
<text text-anchor="start" x="53" y="-391.4" font-family="Source Code Pro" font-size="7.00">0x4046aa &#160;cmp al, 0x7</text>
</g>
<!-- 2&#45;&gt;3 -->
<g id="edge4" class="edge"><title>2&#45;&gt;3</title>
<path fill="none" stroke="black" d="M100.5,-451.832C100.5,-443.17 100.5,-433.831 100.5,-425.402"/>
<polygon fill="black" stroke="black" points="104,-425.332 100.5,-415.332 97.0001,-425.332 104,-425.332"/>
</g>
<!-- 4 -->
<g id="node5" class="node"><title>4</title>
<path fill="none" stroke="black" d="M109,-335C109,-335 26,-335 26,-335 20,-335 14,-329 14,-323 14,-323 14,-311 14,-311 14,-305 20,-299 26,-299 26,-299 109,-299 109,-299 115,-299 121,-305 121,-311 121,-311 121,-323 121,-323 121,-329 115,-335 109,-335"/>
<text text-anchor="start" x="22" y="-315.4" font-family="Source Code Pro" font-size="7.00">0x40207f &#160;xor al, al</text>
</g>
<!-- 3&#45;&gt;4 -->
<g id="edge5" class="edge"><title>3&#45;&gt;4</title>
<path fill="none" stroke="black" stroke-dasharray="5,2" d="M93.1762,-378.689C88.9466,-368.692 83.5373,-355.906 78.7754,-344.651"/>
<polygon fill="black" stroke="black" points="81.9231,-343.108 74.8033,-335.262 75.4764,-345.836 81.9231,-343.108"/>
<text text-anchor="middle" x="92" y="-355.4" font-family="Times,serif" font-size="7.00">cf=0</text>
</g>
<!-- 5 -->
<g id="node6" class="node"><title>5</title>
<path fill="none" stroke="black" d="M189,-262C189,-262 12,-262 12,-262 6,-262 0,-256 0,-250 0,-250 0,-234 0,-234 0,-228 6,-222 12,-222 12,-222 189,-222 189,-222 195,-222 201,-228 201,-234 201,-234 201,-250 201,-250 201,-256 195,-262 189,-262"/>
<text text-anchor="start" x="8" y="-252.4" font-family="Source Code Pro" font-size="7.00">0x402081 &#160;mov byte ptr [0x403ca7], al</text>
<text text-anchor="start" x="8" y="-244.4" font-family="Source Code Pro" font-size="7.00">0x402086 &#160;shl eax, 0x1</text>
<text text-anchor="start" x="8" y="-236.4" font-family="Source Code Pro" font-size="7.00">0x402088 &#160;mov bx, word ptr [eax+0x403048]</text>
<text text-anchor="start" x="8" y="-228.4" font-family="Source Code Pro" font-size="7.00">0x40208f &#160;mov word ptr [0x403042], bx</text>
</g>
<!-- 3&#45;&gt;5 -->
<g id="edge6" class="edge"><title>3&#45;&gt;5</title>
<path fill="none" stroke="black" stroke-dasharray="5,2" d="M111.181,-378.87C117.908,-367.039 125.965,-350.671 129.5,-335 133.021,-319.392 133.286,-314.546 129.5,-299 127.16,-289.391 122.86,-279.591 118.276,-270.932"/>
<polygon fill="black" stroke="black" points="121.227,-269.039 113.269,-262.045 115.129,-272.475 121.227,-269.039"/>
<text text-anchor="middle" x="139" y="-315.4" font-family="Times,serif" font-size="7.00">cf=1</text>
</g>
<!-- 4&#45;&gt;5 -->
<g id="edge7" class="edge"><title>4&#45;&gt;5</title>
<path fill="none" stroke="black" d="M75.3205,-298.7C78.9985,-290.564 83.4807,-280.649 87.6385,-271.451"/>
<polygon fill="black" stroke="black" points="90.8767,-272.785 91.8067,-262.231 84.4982,-269.901 90.8767,-272.785"/>
</g>
<!-- 5&#45;&gt;6 -->
<g id="edge8" class="edge"><title>5&#45;&gt;6</title>
<path fill="none" stroke="black" d="M110.986,-221.918C115.36,-213.96 120.716,-204.213 126.288,-194.075"/>
<polygon fill="black" stroke="black" points="129.471,-195.549 131.22,-185.1 123.336,-192.178 129.471,-195.549"/>
</g>
<!-- 7 -->
<g id="node8" class="node"><title>7</title>
<path fill="none" stroke="black" stroke-dasharray="1,5" d="M318.5,-36C318.5,-36 190.5,-36 190.5,-36 184.5,-36 178.5,-30 178.5,-24 178.5,-24 178.5,-12 178.5,-12 178.5,-6 184.5,-0 190.5,-0 190.5,-0 318.5,-0 318.5,-0 324.5,-0 330.5,-6 330.5,-12 330.5,-12 330.5,-24 330.5,-24 330.5,-30 324.5,-36 318.5,-36"/>
<text text-anchor="start" x="186.5" y="-16.4" font-family="Source Code Pro" font-size="7.00">0x4020c7 &#160;test ebx, 0xc0000000</text>
</g>
<!-- 6&#45;&gt;7 -->
<g id="edge9" class="edge"><title>6&#45;&gt;7</title>
<path fill="none" stroke="black" stroke-dasharray="5,2" d="M208.545,-72.8613C217.149,-62.7775 225.727,-52.7228 233.103,-44.0784"/>
<polygon fill="black" stroke="black" points="235.939,-46.1467 239.767,-36.2676 230.614,-41.6032 235.939,-46.1467"/>
</g>
<!-- 7&#45;&gt;0 -->
<g id="edge10" class="edge"><title>7&#45;&gt;0</title>
<path fill="none" stroke="black" stroke-dasharray="1,5" d="M265.01,-36.0367C276.861,-56.9095 294.5,-93.7321 294.5,-128 294.5,-579 294.5,-579 294.5,-579 294.5,-595.282 286.876,-611.615 278.644,-624.504"/>
<polygon fill="black" stroke="black" points="275.702,-622.606 272.935,-632.833 281.476,-626.564 275.702,-622.606"/>
</g>
</g>
</svg>
