<?xml version="1.0" encoding="UTF-8" standalone="no"?>
<!DOCTYPE svg PUBLIC "-//W3C//DTD SVG 1.1//EN"
 "http://www.w3.org/Graphics/SVG/1.1/DTD/svg11.dtd">
<!-- Generated by graphviz version 2.38.0 (20140413.2041)
 -->
<!-- Title: G Pages: 1 -->
<svg width="480pt" height="751pt"
 viewBox="0.00 0.00 480.00 751.00" xmlns="http://www.w3.org/2000/svg" xmlns:xlink="http://www.w3.org/1999/xlink">
<g id="graph0" class="graph" transform="scale(1 1) rotate(0) translate(4 747)">
<title>G</title>
<polygon fill="white" stroke="none" points="-4,4 -4,-747 476,-747 476,4 -4,4"/>
<!-- 0 -->
<g id="node1" class="node"><title>0</title>
<path fill="cornflowerblue" stroke="black" d="M433.5,-743C433.5,-743 163.5,-743 163.5,-743 157.5,-743 151.5,-737 151.5,-731 151.5,-731 151.5,-719 151.5,-719 151.5,-713 157.5,-707 163.5,-707 163.5,-707 433.5,-707 433.5,-707 439.5,-707 445.5,-713 445.5,-719 445.5,-719 445.5,-731 445.5,-731 445.5,-737 439.5,-743 433.5,-743"/>
<text text-anchor="start" x="159.5" y="-728.4" font-family="Source Code Pro" font-size="12.00">0x402048 &#160;mov al, byte ptr [0x403041]</text>
<text text-anchor="start" x="159.5" y="-715.4" font-family="Source Code Pro" font-size="12.00">0x40204d &#160;inc al</text>
</g>
<!-- 1 -->
<g id="node2" class="node"><title>1</title>
<path fill="none" stroke="black" d="M433.5,-670C433.5,-670 163.5,-670 163.5,-670 157.5,-670 151.5,-664 151.5,-658 151.5,-658 151.5,-646 151.5,-646 151.5,-640 157.5,-634 163.5,-634 163.5,-634 433.5,-634 433.5,-634 439.5,-634 445.5,-640 445.5,-646 445.5,-646 445.5,-658 445.5,-658 445.5,-664 439.5,-670 433.5,-670"/>
<text text-anchor="start" x="159.5" y="-655.4" font-family="Source Code Pro" font-size="12.00">0x404563 &#160;mov byte ptr [0x403041], al</text>
<text text-anchor="start" x="159.5" y="-642.4" font-family="Source Code Pro" font-size="12.00">0x404568 &#160;cmp al, 0x5</text>
</g>
<!-- 0&#45;&gt;1 -->
<g id="edge1" class="edge"><title>0&#45;&gt;1</title>
<path fill="none" stroke="black" d="M298.5,-706.813C298.5,-698.789 298.5,-689.047 298.5,-680.069"/>
<polygon fill="black" stroke="black" points="302,-680.029 298.5,-670.029 295,-680.029 302,-680.029"/>
</g>
<!-- 2 -->
<g id="node3" class="node"><title>2</title>
<path fill="none" stroke="black" d="M316.5,-583C316.5,-583 16.5,-583 16.5,-583 10.5,-583 4.5,-577 4.5,-571 4.5,-571 4.5,-496 4.5,-496 4.5,-490 10.5,-484 16.5,-484 16.5,-484 316.5,-484 316.5,-484 322.5,-484 328.5,-490 328.5,-496 328.5,-496 328.5,-571 328.5,-571 328.5,-577 322.5,-583 316.5,-583"/>
<text text-anchor="start" x="12.5" y="-569.4" font-family="Source Code Pro" font-size="12.00">0x402058 &#160;xor eax, eax</text>
<text text-anchor="start" x="12.5" y="-556.4" font-family="Source Code Pro" font-size="12.00">0x40205a &#160;mov byte ptr [0x403041], al</text>
<text text-anchor="start" x="12.5" y="-543.4" font-family="Source Code Pro" font-size="12.00">0x40205f &#160;movzx eax, byte ptr [0x403ca7]</text>
<text text-anchor="start" x="12.5" y="-530.4" font-family="Source Code Pro" font-size="12.00">0x402066 &#160;mov bx, word ptr [0x403042]</text>
<text text-anchor="start" x="12.5" y="-517.4" font-family="Source Code Pro" font-size="12.00">0x40206d &#160;movzx ecx, al</text>
<text text-anchor="start" x="12.5" y="-504.4" font-family="Source Code Pro" font-size="12.00">0x402070 &#160;shl cl, 0x1</text>
<text text-anchor="start" x="12.5" y="-491.4" font-family="Source Code Pro" font-size="12.00">0x402072 &#160;mov word ptr [ecx+0x403048], bx</text>
</g>
<!-- 1&#45;&gt;2 -->
<g id="edge2" class="edge"><title>1&#45;&gt;2</title>
<path fill="none" stroke="black" stroke-dasharray="5,2" d="M279.023,-633.81C265.72,-622.069 247.286,-605.8 229.185,-589.825"/>
<polygon fill="black" stroke="black" points="231.278,-587.003 221.464,-583.01 226.646,-592.252 231.278,-587.003"/>
<text text-anchor="middle" x="268.5" y="-604.8" font-family="Times,serif" font-size="14.00">zf=1</text>
</g>
<!-- 6 -->
<g id="node7" class="node"><title>6</title>
<path fill="gainsboro" stroke="black" d="M460,-190C460,-190 145,-190 145,-190 139,-190 133,-184 133,-178 133,-178 133,-12 133,-12 133,-6 139,-0 145,-0 145,-0 460,-0 460,-0 466,-0 472,-6 472,-12 472,-12 472,-178 472,-178 472,-184 466,-190 460,-190"/>
<text text-anchor="start" x="141" y="-176.4" font-family="Source Code Pro" font-size="12.00">0x402096 &#160;movzx eax, byte ptr [0x403ca7]</text>
<text text-anchor="start" x="141" y="-163.4" font-family="Source Code Pro" font-size="12.00">0x40209d &#160;shl eax, 0x2</text>
<text text-anchor="start" x="141" y="-150.4" font-family="Source Code Pro" font-size="12.00">0x4020a0 &#160;mov ebx, dword ptr [eax+0x40268b]</text>
<text text-anchor="start" x="141" y="-137.4" font-family="Source Code Pro" font-size="12.00">0x4020a6 &#160;mov ax, word ptr [0x403042]</text>
<text text-anchor="start" x="141" y="-124.4" font-family="Source Code Pro" font-size="12.00">0x4020ac &#160;xor edx, edx</text>
<text text-anchor="start" x="141" y="-111.4" font-family="Source Code Pro" font-size="12.00">0x4020ae &#160;mov ecx, 0x8</text>
<text text-anchor="start" x="141" y="-98.4" font-family="Source Code Pro" font-size="12.00">0x4020b3 &#160;div ecx</text>
<text text-anchor="start" x="141" y="-85.4" font-family="Source Code Pro" font-size="12.00">0x4020b5 &#160;add ebx, eax</text>
<text text-anchor="start" x="141" y="-72.4" font-family="Source Code Pro" font-size="12.00">0x4020b7 &#160;mov ebx, dword ptr [ebx]</text>
<text text-anchor="start" x="141" y="-59.4" font-family="Source Code Pro" font-size="12.00">0x4020b9 &#160;bswap ebx</text>
<text text-anchor="start" x="141" y="-46.4" font-family="Source Code Pro" font-size="12.00">0x4020bb &#160;mov cl, dl</text>
<text text-anchor="start" x="141" y="-33.4" font-family="Source Code Pro" font-size="12.00">0x4020bd &#160;shl ebx, cl</text>
<text text-anchor="start" x="141" y="-20.4" font-family="Source Code Pro" font-size="12.00">0x4020bf &#160;add word ptr [0x403042], 0x2</text>
<text text-anchor="start" x="141" y="-7.4" font-family="Source Code Pro" font-size="12.00">0x4020c7 &#160;test ebx, 0xc0000000</text>
</g>
<!-- 1&#45;&gt;6 -->
<g id="edge3" class="edge"><title>1&#45;&gt;6</title>
<path fill="none" stroke="black" stroke-dasharray="5,2" d="M313.436,-633.776C330.621,-612.136 356.5,-573.135 356.5,-534.5 356.5,-534.5 356.5,-534.5 356.5,-256 356.5,-237.486 353.214,-218.37 348.263,-200.075"/>
<polygon fill="black" stroke="black" points="351.578,-198.937 345.442,-190.299 344.852,-200.878 351.578,-198.937"/>
<text text-anchor="middle" x="369.5" y="-381.8" font-family="Times,serif" font-size="14.00">zf=0</text>
</g>
<!-- 3 -->
<g id="node4" class="node"><title>3</title>
<path fill="none" stroke="black" d="M241.5,-447C241.5,-447 91.5,-447 91.5,-447 85.5,-447 79.5,-441 79.5,-435 79.5,-435 79.5,-423 79.5,-423 79.5,-417 85.5,-411 91.5,-411 91.5,-411 241.5,-411 241.5,-411 247.5,-411 253.5,-417 253.5,-423 253.5,-423 253.5,-435 253.5,-435 253.5,-441 247.5,-447 241.5,-447"/>
<text text-anchor="start" x="87.5" y="-432.4" font-family="Source Code Pro" font-size="12.00">0x4046a8 &#160;inc al</text>
<text text-anchor="start" x="87.5" y="-419.4" font-family="Source Code Pro" font-size="12.00">0x4046aa &#160;cmp al, 0x7</text>
</g>
<!-- 2&#45;&gt;3 -->
<g id="edge4" class="edge"><title>2&#45;&gt;3</title>
<path fill="none" stroke="black" d="M166.5,-483.952C166.5,-474.741 166.5,-465.414 166.5,-457.164"/>
<polygon fill="black" stroke="black" points="170,-457.041 166.5,-447.041 163,-457.041 170,-457.041"/>
</g>
<!-- 4 -->
<g id="node5" class="node"><title>4</title>
<path fill="none" stroke="black" d="M155,-360C155,-360 12,-360 12,-360 6,-360 0,-354 0,-348 0,-348 0,-336 0,-336 0,-330 6,-324 12,-324 12,-324 155,-324 155,-324 161,-324 167,-330 167,-336 167,-336 167,-348 167,-348 167,-354 161,-360 155,-360"/>
<text text-anchor="start" x="8" y="-338.9" font-family="Source Code Pro" font-size="12.00">0x40207f &#160;xor al, al</text>
</g>
<!-- 3&#45;&gt;4 -->
<g id="edge5" class="edge"><title>3&#45;&gt;4</title>
<path fill="none" stroke="black" stroke-dasharray="5,2" d="M149.704,-410.799C137.554,-398.356 120.962,-381.364 107.428,-367.504"/>
<polygon fill="black" stroke="black" points="109.762,-364.885 100.271,-360.175 104.754,-369.775 109.762,-364.885"/>
<text text-anchor="middle" x="143.5" y="-381.8" font-family="Times,serif" font-size="14.00">cf=0</text>
</g>
<!-- 5 -->
<g id="node6" class="node"><title>5</title>
<path fill="none" stroke="black" d="M316.5,-287C316.5,-287 16.5,-287 16.5,-287 10.5,-287 4.5,-281 4.5,-275 4.5,-275 4.5,-239 4.5,-239 4.5,-233 10.5,-227 16.5,-227 16.5,-227 316.5,-227 316.5,-227 322.5,-227 328.5,-233 328.5,-239 328.5,-239 328.5,-275 328.5,-275 328.5,-281 322.5,-287 316.5,-287"/>
<text text-anchor="start" x="12.5" y="-273.4" font-family="Source Code Pro" font-size="12.00">0x402081 &#160;mov byte ptr [0x403ca7], al</text>
<text text-anchor="start" x="12.5" y="-260.4" font-family="Source Code Pro" font-size="12.00">0x402086 &#160;shl eax, 0x1</text>
<text text-anchor="start" x="12.5" y="-247.4" font-family="Source Code Pro" font-size="12.00">0x402088 &#160;mov bx, word ptr [eax+0x403048]</text>
<text text-anchor="start" x="12.5" y="-234.4" font-family="Source Code Pro" font-size="12.00">0x40208f &#160;mov word ptr [0x403042], bx</text>
</g>
<!-- 3&#45;&gt;5 -->
<g id="edge6" class="edge"><title>3&#45;&gt;5</title>
<path fill="none" stroke="black" stroke-dasharray="5,2" d="M169.424,-410.734C171.59,-397.027 174.357,-377.349 175.5,-360 176.552,-344.035 176.583,-339.963 175.5,-324 174.909,-315.293 173.884,-305.983 172.733,-297.183"/>
<polygon fill="black" stroke="black" points="176.183,-296.578 171.342,-287.154 169.249,-297.54 176.183,-296.578"/>
<text text-anchor="middle" x="189.5" y="-338.3" font-family="Times,serif" font-size="14.00">cf=1</text>
</g>
<!-- 4&#45;&gt;5 -->
<g id="edge7" class="edge"><title>4&#45;&gt;5</title>
<path fill="none" stroke="black" d="M100.698,-323.802C109.18,-315.32 119.754,-304.746 129.927,-294.573"/>
<polygon fill="black" stroke="black" points="132.632,-296.818 137.228,-287.272 127.682,-291.868 132.632,-296.818"/>
</g>
<!-- 5&#45;&gt;6 -->
<g id="edge8" class="edge"><title>5&#45;&gt;6</title>
<path fill="none" stroke="black" d="M191.444,-226.654C198.726,-218.087 207.126,-208.205 215.98,-197.789"/>
<polygon fill="black" stroke="black" points="218.688,-200.007 222.497,-190.121 213.354,-195.474 218.688,-200.007"/>
</g>
</g>
</svg>
