<?xml version="1.0" encoding="UTF-8" standalone="no"?>
<!DOCTYPE svg PUBLIC "-//W3C//DTD SVG 1.1//EN"
 "http://www.w3.org/Graphics/SVG/1.1/DTD/svg11.dtd">
<!-- Generated by graphviz version 2.38.0 (20140413.2041)
 -->
<!-- Title: G Pages: 1 -->
<svg width="336pt" height="506pt"
 viewBox="0.00 0.00 336.00 506.00" xmlns="http://www.w3.org/2000/svg" xmlns:xlink="http://www.w3.org/1999/xlink">
<g id="graph0" class="graph" transform="scale(1 1) rotate(0) translate(4 502)">
<title>G</title>
<polygon fill="white" stroke="none" points="-4,4 -4,-502 332,-502 332,4 -4,4"/>
<!-- 0 -->
<g id="node1" class="node"><title>0</title>
<path fill="none" stroke="black" d="M316,-498C316,-498 89,-498 89,-498 83,-498 77,-492 77,-486 77,-486 77,-293 77,-293 77,-287 83,-281 89,-281 89,-281 316,-281 316,-281 322,-281 328,-287 328,-293 328,-293 328,-486 328,-486 328,-492 322,-498 316,-498"/>
<text text-anchor="start" x="85" y="-486" font-family="Source Code Pro" font-size="10.00" fill="blue">0x40428c &#160;push 0x0</text>
<text text-anchor="start" x="85" y="-475" font-family="Source Code Pro" font-size="10.00">0x40428e &#160;push eax</text>
<text text-anchor="start" x="85" y="-464" font-family="Source Code Pro" font-size="10.00">0x40428f &#160;push ebx</text>
<text text-anchor="start" x="85" y="-453" font-family="Source Code Pro" font-size="10.00">0x404290 &#160;push ecx</text>
<text text-anchor="start" x="85" y="-442" font-family="Source Code Pro" font-size="10.00">0x404291 &#160;push edx</text>
<text text-anchor="start" x="85" y="-431" font-family="Source Code Pro" font-size="10.00" fill="cornflowerblue">0x404292 &#160;lahf</text>
<text text-anchor="start" x="85" y="-420" font-family="Source Code Pro" font-size="10.00">0x404293 &#160;mov ecx, dword ptr [0x40405a]</text>
<text text-anchor="start" x="85" y="-409" font-family="Source Code Pro" font-size="10.00">0x404299 &#160;movzx edx, byte ptr [ecx+0x5]</text>
<text text-anchor="start" x="85" y="-398" font-family="Source Code Pro" font-size="10.00" fill="purple">0x40429d &#160;mov ebx, dword ptr [ecx+0x6]</text>
<text text-anchor="start" x="85" y="-387" font-family="Source Code Pro" font-size="10.00">0x4042a0 &#160;push eax</text>
<text text-anchor="start" x="85" y="-376" font-family="Source Code Pro" font-size="10.00">0x4042a1 &#160;cmp edx, 0x0</text>
<text text-anchor="start" x="85" y="-365" font-family="Source Code Pro" font-size="10.00">0x4042a4 &#160;jz 0x4042bc</text>
<text text-anchor="start" x="85" y="-354" font-family="Source Code Pro" font-size="10.00">0x4042a6 &#160;mov ecx, edx</text>
<text text-anchor="start" x="85" y="-343" font-family="Source Code Pro" font-size="10.00">0x4042a8 &#160;shr ecx, 0x1</text>
<text text-anchor="start" x="85" y="-332" font-family="Source Code Pro" font-size="10.00">0x4042aa &#160;and edx, 0x1</text>
<text text-anchor="start" x="85" y="-321" font-family="Source Code Pro" font-size="10.00" fill="cornflowerblue">0x4042ad &#160;shr eax, cl</text>
<text text-anchor="start" x="85" y="-310" font-family="Source Code Pro" font-size="10.00" fill="cornflowerblue">0x4042af &#160;and eax, 0x1</text>
<text text-anchor="start" x="85" y="-299" font-family="Source Code Pro" font-size="10.00">0x4042b2 &#160;cmp al, dl</text>
<text text-anchor="start" x="85" y="-288" font-family="Source Code Pro" font-size="10.00">0x4042b4 &#160;jz 0x4042bc</text>
</g>
<!-- 1 -->
<g id="node2" class="node"><title>1</title>
<path fill="none" stroke="black" d="M239,-245C239,-245 12,-245 12,-245 6,-245 0,-239 0,-233 0,-233 0,-221 0,-221 0,-215 6,-209 12,-209 12,-209 239,-209 239,-209 245,-209 251,-215 251,-221 251,-221 251,-233 251,-233 251,-239 245,-245 239,-245"/>
<text text-anchor="start" x="8" y="-224.5" font-family="Source Code Pro" font-size="10.00" fill="purple">0x4042b6 &#160;mov ebx, dword ptr [0x404056]</text>
</g>
<!-- 0&#45;&gt;1 -->
<g id="edge1" class="edge"><title>0&#45;&gt;1</title>
<path fill="none" stroke="black" d="M150.926,-280.999C146.303,-271.362 141.965,-262.321 138.227,-254.529"/>
<polygon fill="black" stroke="black" points="141.318,-252.879 133.836,-245.377 135.006,-255.907 141.318,-252.879"/>
</g>
<!-- 2 -->
<g id="node3" class="node"><title>2</title>
<path fill="none" stroke="black" d="M316,-173C316,-173 89,-173 89,-173 83,-173 77,-167 77,-161 77,-161 77,-12 77,-12 77,-6 83,-0 89,-0 89,-0 316,-0 316,-0 322,-0 328,-6 328,-12 328,-12 328,-161 328,-161 328,-167 322,-173 316,-173"/>
<text text-anchor="start" x="85" y="-161" font-family="Source Code Pro" font-size="10.00">0x4042bc &#160;mov dword ptr [0x404052], ebx</text>
<text text-anchor="start" x="85" y="-150" font-family="Source Code Pro" font-size="10.00" fill="blue">0x4042c2 &#160;mov dword ptr [esp+0x14], ebx</text>
<text text-anchor="start" x="85" y="-139" font-family="Source Code Pro" font-size="10.00" fill="orange">0x4042c6 &#160;call 0x404276</text>
<text text-anchor="start" x="85" y="-128" font-family="Source Code Pro" font-size="10.00">0x4042cb &#160;push 0x40405e</text>
<text text-anchor="start" x="85" y="-117" font-family="Source Code Pro" font-size="10.00">0x4042d0 &#160;push edx</text>
<text text-anchor="start" x="85" y="-106" font-family="Source Code Pro" font-size="10.00">0x4042d1 &#160;push ecx</text>
<text text-anchor="start" x="85" y="-95" font-family="Source Code Pro" font-size="10.00" fill="orange">0x4042d2 &#160;call 0x4042e1</text>
<text text-anchor="start" x="85" y="-84" font-family="Source Code Pro" font-size="10.00">0x4042d7 &#160;add esp, 0xc</text>
<text text-anchor="start" x="85" y="-73" font-family="Source Code Pro" font-size="10.00">0x4042da &#160;pop eax</text>
<text text-anchor="start" x="85" y="-62" font-family="Source Code Pro" font-size="10.00">0x4042db &#160;sahf </text>
<text text-anchor="start" x="85" y="-51" font-family="Source Code Pro" font-size="10.00">0x4042dc &#160;pop edx</text>
<text text-anchor="start" x="85" y="-40" font-family="Source Code Pro" font-size="10.00">0x4042dd &#160;pop ecx</text>
<text text-anchor="start" x="85" y="-29" font-family="Source Code Pro" font-size="10.00">0x4042de &#160;pop ebx</text>
<text text-anchor="start" x="85" y="-18" font-family="Source Code Pro" font-size="10.00">0x4042df &#160;pop eax</text>
<text text-anchor="start" x="85" y="-7" font-family="Source Code Pro" font-size="10.00">0x4042e0 &#160;ret </text>
</g>
<!-- 0&#45;&gt;2 -->
<g id="edge2" class="edge"><title>0&#45;&gt;2</title>
<path fill="none" stroke="black" d="M257.007,-280.686C263.299,-257.269 265.816,-232.477 260.5,-209 258.51,-200.211 255.803,-191.313 252.642,-182.539"/>
<polygon fill="black" stroke="black" points="255.87,-181.181 249.045,-173.078 249.327,-183.669 255.87,-181.181"/>
</g>
<!-- 1&#45;&gt;2 -->
<g id="edge3" class="edge"><title>1&#45;&gt;2</title>
<path fill="none" stroke="black" d="M135.096,-208.739C139.181,-201.392 144.289,-192.205 149.855,-182.193"/>
<polygon fill="black" stroke="black" points="153.049,-183.65 154.849,-173.209 146.931,-180.249 153.049,-183.65"/>
</g>
</g>
</svg>
