<?xml version="1.0" encoding="UTF-8" standalone="no"?>
<!DOCTYPE svg PUBLIC "-//W3C//DTD SVG 1.1//EN"
 "http://www.w3.org/Graphics/SVG/1.1/DTD/svg11.dtd">
<!-- Generated by graphviz version 2.38.0 (20140413.2041)
 -->
<!-- Title: G Pages: 1 -->
<svg width="336pt" height="495pt"
 viewBox="0.00 0.00 336.00 495.00" xmlns="http://www.w3.org/2000/svg" xmlns:xlink="http://www.w3.org/1999/xlink">
<g id="graph0" class="graph" transform="scale(1 1) rotate(0) translate(4 491)">
<title>G</title>
<polygon fill="white" stroke="none" points="-4,4 -4,-491 332,-491 332,4 -4,4"/>
<!-- 0 -->
<g id="node1" class="node"><title>0</title>
<path fill="none" stroke="black" d="M239,-487C239,-487 12,-487 12,-487 6,-487 0,-481 0,-475 0,-475 0,-304 0,-304 0,-298 6,-292 12,-292 12,-292 239,-292 239,-292 245,-292 251,-298 251,-304 251,-304 251,-475 251,-475 251,-481 245,-487 239,-487"/>
<text text-anchor="start" x="8" y="-475" font-family="Source Code Pro" font-size="10.00">0x404000 &#160;pushfd </text>
<text text-anchor="start" x="8" y="-464" font-family="Source Code Pro" font-size="10.00">0x404001 &#160;push eax</text>
<text text-anchor="start" x="8" y="-453" font-family="Source Code Pro" font-size="10.00">0x404002 &#160;push ebx</text>
<text text-anchor="start" x="8" y="-442" font-family="Source Code Pro" font-size="10.00">0x404003 &#160;push ecx</text>
<text text-anchor="start" x="8" y="-431" font-family="Source Code Pro" font-size="10.00">0x404004 &#160;push edx</text>
<text text-anchor="start" x="8" y="-420" font-family="Source Code Pro" font-size="10.00" fill="blue">0x404005 &#160;mov ebx, dword ptr [esp+0x14]</text>
<text text-anchor="start" x="8" y="-409" font-family="Source Code Pro" font-size="10.00">0x404009 &#160;mov dword ptr [0x404056], ebx</text>
<text text-anchor="start" x="8" y="-398" font-family="Source Code Pro" font-size="10.00">0x40400f &#160;push ebx</text>
<text text-anchor="start" x="8" y="-387" font-family="Source Code Pro" font-size="10.00">0x404010 &#160;mov ebx, dword ptr [0x404052]</text>
<text text-anchor="start" x="8" y="-376" font-family="Source Code Pro" font-size="10.00" fill="orange">0x404016 &#160;call 0x404276</text>
<text text-anchor="start" x="8" y="-365" font-family="Source Code Pro" font-size="10.00">0x40401b &#160;push 0x40405e</text>
<text text-anchor="start" x="8" y="-354" font-family="Source Code Pro" font-size="10.00">0x404020 &#160;push edx</text>
<text text-anchor="start" x="8" y="-343" font-family="Source Code Pro" font-size="10.00">0x404021 &#160;push ecx</text>
<text text-anchor="start" x="8" y="-332" font-family="Source Code Pro" font-size="10.00" fill="orange">0x404022 &#160;call 0x40424d</text>
<text text-anchor="start" x="8" y="-321" font-family="Source Code Pro" font-size="10.00">0x404027 &#160;add esp, 0xc</text>
<text text-anchor="start" x="8" y="-310" font-family="Source Code Pro" font-size="10.00">0x40402a &#160;pop ebx</text>
<text text-anchor="start" x="8" y="-299" font-family="Source Code Pro" font-size="10.00">0x40402b &#160;mov eax, 0x404309</text>
</g>
<!-- 1 -->
<g id="node2" class="node"><title>1</title>
<path fill="none" stroke="black" d="M224,-256C224,-256 27,-256 27,-256 21,-256 15,-250 15,-244 15,-244 15,-232 15,-232 15,-226 21,-220 27,-220 27,-220 224,-220 224,-220 230,-220 236,-226 236,-232 236,-232 236,-244 236,-244 236,-250 230,-256 224,-256"/>
<text text-anchor="start" x="23" y="-241" font-family="Source Code Pro" font-size="10.00">0x404030 &#160;cmp ebx, dword ptr [eax]</text>
<text text-anchor="start" x="23" y="-230" font-family="Source Code Pro" font-size="10.00">0x404032 &#160;jz 0x40403d</text>
</g>
<!-- 0&#45;&gt;1 -->
<g id="edge1" class="edge"><title>0&#45;&gt;1</title>
<path fill="none" stroke="black" d="M125.5,-291.708C125.5,-282.656 125.5,-274.078 125.5,-266.573"/>
<polygon fill="black" stroke="black" points="129,-266.415 125.5,-256.415 122,-266.415 129,-266.415"/>
</g>
<!-- 2 -->
<g id="node3" class="node"><title>2</title>
<path fill="none" stroke="black" d="M239,-184C239,-184 12,-184 12,-184 6,-184 0,-178 0,-172 0,-172 0,-155 0,-155 0,-149 6,-143 12,-143 12,-143 239,-143 239,-143 245,-143 251,-149 251,-155 251,-155 251,-172 251,-172 251,-178 245,-184 239,-184"/>
<text text-anchor="start" x="8" y="-172" font-family="Source Code Pro" font-size="10.00">0x404034 &#160;movzx edx, byte ptr [eax+0x4]</text>
<text text-anchor="start" x="8" y="-161" font-family="Source Code Pro" font-size="10.00">0x404038 &#160;lea eax, ptr [edx+eax*1]</text>
<text text-anchor="start" x="8" y="-150" font-family="Source Code Pro" font-size="10.00">0x40403b &#160;jnz 0x404030</text>
</g>
<!-- 1&#45;&gt;2 -->
<g id="edge2" class="edge"><title>1&#45;&gt;2</title>
<path fill="none" stroke="black" d="M119.66,-219.819C118.857,-212.198 118.585,-203.005 118.845,-194.32"/>
<polygon fill="black" stroke="black" points="122.352,-194.302 119.426,-184.12 115.363,-193.905 122.352,-194.302"/>
</g>
<!-- 3 -->
<g id="node4" class="node"><title>3</title>
<path fill="none" stroke="black" d="M316,-107C316,-107 89,-107 89,-107 83,-107 77,-101 77,-95 77,-95 77,-12 77,-12 77,-6 83,7.10543e-15 89,7.10543e-15 89,7.10543e-15 316,7.10543e-15 316,7.10543e-15 322,7.10543e-15 328,-6 328,-12 328,-12 328,-95 328,-95 328,-101 322,-107 316,-107"/>
<text text-anchor="start" x="85" y="-95" font-family="Source Code Pro" font-size="10.00">0x40403d &#160;mov dword ptr [0x40405a], eax</text>
<text text-anchor="start" x="85" y="-84" font-family="Source Code Pro" font-size="10.00">0x404042 &#160;lea eax, ptr [eax+0xa]</text>
<text text-anchor="start" x="85" y="-73" font-family="Source Code Pro" font-size="10.00" fill="blue">0x404045 &#160;mov dword ptr [esp+0x14], eax</text>
<text text-anchor="start" x="85" y="-62" font-family="Source Code Pro" font-size="10.00">0x404049 &#160;pop edx</text>
<text text-anchor="start" x="85" y="-51" font-family="Source Code Pro" font-size="10.00">0x40404a &#160;pop ecx</text>
<text text-anchor="start" x="85" y="-40" font-family="Source Code Pro" font-size="10.00">0x40404b &#160;pop ebx</text>
<text text-anchor="start" x="85" y="-29" font-family="Source Code Pro" font-size="10.00">0x40404c &#160;pop eax</text>
<text text-anchor="start" x="85" y="-18" font-family="Source Code Pro" font-size="10.00">0x40404d &#160;popfd </text>
<text text-anchor="start" x="85" y="-7" font-family="Source Code Pro" font-size="10.00">0x40404e &#160;ret </text>
</g>
<!-- 1&#45;&gt;3 -->
<g id="edge3" class="edge"><title>1&#45;&gt;3</title>
<path fill="none" stroke="black" d="M213.1,-219.893C231.715,-212.061 249.154,-200.644 260.5,-184 274.71,-163.155 268.27,-138.265 255.427,-115.901"/>
<polygon fill="black" stroke="black" points="258.247,-113.806 250.008,-107.144 252.294,-117.489 258.247,-113.806"/>
</g>
<!-- 2&#45;&gt;1 -->
<g id="edge4" class="edge"><title>2&#45;&gt;1</title>
<path fill="none" stroke="black" d="M131.574,-184.12C132.259,-191.959 132.423,-201.124 132.068,-209.601"/>
<polygon fill="black" stroke="black" points="128.56,-209.595 131.34,-219.819 135.542,-210.093 128.56,-209.595"/>
</g>
<!-- 2&#45;&gt;3 -->
<g id="edge5" class="edge"><title>2&#45;&gt;3</title>
<path fill="none" stroke="black" d="M139.444,-142.942C145.065,-135.059 151.883,-125.495 158.933,-115.607"/>
<polygon fill="black" stroke="black" points="161.932,-117.43 164.887,-107.255 156.232,-113.366 161.932,-117.43"/>
</g>
</g>
</svg>
