<?xml version="1.0" encoding="UTF-8" standalone="no"?>
<!DOCTYPE svg PUBLIC "-//W3C//DTD SVG 1.1//EN"
 "http://www.w3.org/Graphics/SVG/1.1/DTD/svg11.dtd">
<!-- Generated by graphviz version 2.38.0 (20140413.2041)
 -->
<!-- Title: G Pages: 1 -->
<svg width="408pt" height="553pt"
 viewBox="0.00 0.00 408.00 553.00" xmlns="http://www.w3.org/2000/svg" xmlns:xlink="http://www.w3.org/1999/xlink">
<g id="graph0" class="graph" transform="scale(1 1) rotate(0) translate(4 549)">
<title>G</title>
<polygon fill="white" stroke="none" points="-4,4 -4,-549 404,-549 404,4 -4,4"/>
<!-- 0 -->
<g id="node1" class="node"><title>0</title>
<path fill="none" stroke="black" d="M297,-545C297,-545 12,-545 12,-545 6,-545 0,-539 0,-533 0,-533 0,-328 0,-328 0,-322 6,-316 12,-316 12,-316 297,-316 297,-316 303,-316 309,-322 309,-328 309,-328 309,-533 309,-533 309,-539 303,-545 297,-545"/>
<text text-anchor="start" x="8" y="-531.4" font-family="Source Code Pro" font-size="12.00">0x404000 &#160;pushfd </text>
<text text-anchor="start" x="8" y="-518.4" font-family="Source Code Pro" font-size="12.00">0x404001 &#160;push eax</text>
<text text-anchor="start" x="8" y="-505.4" font-family="Source Code Pro" font-size="12.00">0x404002 &#160;push ebx</text>
<text text-anchor="start" x="8" y="-492.4" font-family="Source Code Pro" font-size="12.00">0x404003 &#160;push ecx</text>
<text text-anchor="start" x="8" y="-479.4" font-family="Source Code Pro" font-size="12.00">0x404004 &#160;push edx</text>
<text text-anchor="start" x="8" y="-466.4" font-family="Source Code Pro" font-size="12.00" fill="blue">0x404005 &#160;mov ebx, dword ptr [esp+0x14]</text>
<text text-anchor="start" x="8" y="-453.4" font-family="Source Code Pro" font-size="12.00">0x404009 &#160;mov dword ptr [0x404056], ebx</text>
<text text-anchor="start" x="8" y="-440.4" font-family="Source Code Pro" font-size="12.00">0x40400f &#160;push ebx</text>
<text text-anchor="start" x="8" y="-427.4" font-family="Source Code Pro" font-size="12.00">0x404010 &#160;mov ebx, dword ptr [0x404052]</text>
<text text-anchor="start" x="8" y="-414.4" font-family="Source Code Pro" font-size="12.00" fill="orange">0x404016 &#160;call 0x404276</text>
<text text-anchor="start" x="8" y="-401.4" font-family="Source Code Pro" font-size="12.00">0x40401b &#160;push 0x40405e</text>
<text text-anchor="start" x="8" y="-388.4" font-family="Source Code Pro" font-size="12.00">0x404020 &#160;push edx</text>
<text text-anchor="start" x="8" y="-375.4" font-family="Source Code Pro" font-size="12.00">0x404021 &#160;push ecx</text>
<text text-anchor="start" x="8" y="-362.4" font-family="Source Code Pro" font-size="12.00" fill="orange">0x404022 &#160;call 0x40424d</text>
<text text-anchor="start" x="8" y="-349.4" font-family="Source Code Pro" font-size="12.00">0x404027 &#160;add esp, 0xc</text>
<text text-anchor="start" x="8" y="-336.4" font-family="Source Code Pro" font-size="12.00">0x40402a &#160;pop ebx</text>
<text text-anchor="start" x="8" y="-323.4" font-family="Source Code Pro" font-size="12.00">0x40402b &#160;mov eax, 0x404309</text>
</g>
<!-- 1 -->
<g id="node2" class="node"><title>1</title>
<path fill="none" stroke="black" d="M278.5,-280C278.5,-280 30.5,-280 30.5,-280 24.5,-280 18.5,-274 18.5,-268 18.5,-268 18.5,-256 18.5,-256 18.5,-250 24.5,-244 30.5,-244 30.5,-244 278.5,-244 278.5,-244 284.5,-244 290.5,-250 290.5,-256 290.5,-256 290.5,-268 290.5,-268 290.5,-274 284.5,-280 278.5,-280"/>
<text text-anchor="start" x="26.5" y="-265.4" font-family="Source Code Pro" font-size="12.00">0x404030 &#160;cmp ebx, dword ptr [eax]</text>
<text text-anchor="start" x="26.5" y="-252.4" font-family="Source Code Pro" font-size="12.00">0x404032 &#160;jz 0x40403d</text>
</g>
<!-- 0&#45;&gt;1 -->
<g id="edge1" class="edge"><title>0&#45;&gt;1</title>
<path fill="none" stroke="black" d="M154.5,-315.682C154.5,-306.464 154.5,-297.827 154.5,-290.319"/>
<polygon fill="black" stroke="black" points="158,-290.191 154.5,-280.191 151,-290.191 158,-290.191"/>
</g>
<!-- 2 -->
<g id="node3" class="node"><title>2</title>
<path fill="none" stroke="black" d="M297,-208C297,-208 12,-208 12,-208 6,-208 0,-202 0,-196 0,-196 0,-173 0,-173 0,-167 6,-161 12,-161 12,-161 297,-161 297,-161 303,-161 309,-167 309,-173 309,-173 309,-196 309,-196 309,-202 303,-208 297,-208"/>
<text text-anchor="start" x="8" y="-194.4" font-family="Source Code Pro" font-size="12.00">0x404034 &#160;movzx edx, byte ptr [eax+0x4]</text>
<text text-anchor="start" x="8" y="-181.4" font-family="Source Code Pro" font-size="12.00">0x404038 &#160;lea eax, ptr [edx+eax*1]</text>
<text text-anchor="start" x="8" y="-168.4" font-family="Source Code Pro" font-size="12.00">0x40403b &#160;jnz 0x404030</text>
</g>
<!-- 1&#45;&gt;2 -->
<g id="edge2" class="edge"><title>1&#45;&gt;2</title>
<path fill="none" stroke="black" d="M148.739,-243.868C147.923,-236.238 147.612,-226.987 147.806,-218.12"/>
<polygon fill="black" stroke="black" points="151.308,-218.157 148.265,-208.009 144.315,-217.84 151.308,-218.157"/>
</g>
<!-- 3 -->
<g id="node4" class="node"><title>3</title>
<path fill="none" stroke="black" d="M388,-125C388,-125 103,-125 103,-125 97,-125 91,-119 91,-113 91,-113 91,-12 91,-12 91,-6 97,-0 103,-0 103,-0 388,-0 388,-0 394,-0 400,-6 400,-12 400,-12 400,-113 400,-113 400,-119 394,-125 388,-125"/>
<text text-anchor="start" x="99" y="-111.4" font-family="Source Code Pro" font-size="12.00">0x40403d &#160;mov dword ptr [0x40405a], eax</text>
<text text-anchor="start" x="99" y="-98.4" font-family="Source Code Pro" font-size="12.00">0x404042 &#160;lea eax, ptr [eax+0xa]</text>
<text text-anchor="start" x="99" y="-85.4" font-family="Source Code Pro" font-size="12.00" fill="blue">0x404045 &#160;mov dword ptr [esp+0x14], eax</text>
<text text-anchor="start" x="99" y="-72.4" font-family="Source Code Pro" font-size="12.00">0x404049 &#160;pop edx</text>
<text text-anchor="start" x="99" y="-59.4" font-family="Source Code Pro" font-size="12.00">0x40404a &#160;pop ecx</text>
<text text-anchor="start" x="99" y="-46.4" font-family="Source Code Pro" font-size="12.00">0x40404b &#160;pop ebx</text>
<text text-anchor="start" x="99" y="-33.4" font-family="Source Code Pro" font-size="12.00">0x40404c &#160;pop eax</text>
<text text-anchor="start" x="99" y="-20.4" font-family="Source Code Pro" font-size="12.00">0x40404d &#160;popfd </text>
<text text-anchor="start" x="99" y="-7.4" font-family="Source Code Pro" font-size="12.00">0x40404e &#160;ret </text>
</g>
<!-- 1&#45;&gt;3 -->
<g id="edge3" class="edge"><title>1&#45;&gt;3</title>
<path fill="none" stroke="black" d="M270.562,-243.849C289.344,-235.903 306.527,-224.452 318.5,-208 335.07,-185.232 327.489,-158.153 312.123,-133.625"/>
<polygon fill="black" stroke="black" points="314.864,-131.427 306.391,-125.066 309.048,-135.322 314.864,-131.427"/>
</g>
<!-- 2&#45;&gt;1 -->
<g id="edge4" class="edge"><title>2&#45;&gt;1</title>
<path fill="none" stroke="black" d="M160.735,-208.009C161.311,-216.087 161.404,-225.285 161.014,-233.725"/>
<polygon fill="black" stroke="black" points="157.511,-233.636 160.261,-243.868 164.491,-234.154 157.511,-233.636"/>
</g>
<!-- 2&#45;&gt;3 -->
<g id="edge5" class="edge"><title>2&#45;&gt;3</title>
<path fill="none" stroke="black" d="M171.616,-160.929C177.751,-152.84 185.031,-143.239 192.592,-133.269"/>
<polygon fill="black" stroke="black" points="195.446,-135.298 198.699,-125.215 189.868,-131.068 195.446,-135.298"/>
</g>
</g>
</svg>
