<?xml version="1.0" encoding="UTF-8" standalone="no"?>
<!DOCTYPE svg PUBLIC "-//W3C//DTD SVG 1.1//EN"
 "http://www.w3.org/Graphics/SVG/1.1/DTD/svg11.dtd">
<!-- Generated by graphviz version 2.38.0 (20140413.2041)
 -->
<!-- Title: G Pages: 1 -->
<svg width="408pt" height="574pt"
 viewBox="0.00 0.00 408.00 574.00" xmlns="http://www.w3.org/2000/svg" xmlns:xlink="http://www.w3.org/1999/xlink">
<g id="graph0" class="graph" transform="scale(1 1) rotate(0) translate(4 570)">
<title>G</title>
<polygon fill="white" stroke="none" points="-4,4 -4,-570 404,-570 404,4 -4,4"/>
<!-- 0 -->
<g id="node1" class="node"><title>0</title>
<path fill="none" stroke="black" d="M388,-566C388,-566 103,-566 103,-566 97,-566 91,-560 91,-554 91,-554 91,-323 91,-323 91,-317 97,-311 103,-311 103,-311 388,-311 388,-311 394,-311 400,-317 400,-323 400,-323 400,-554 400,-554 400,-560 394,-566 388,-566"/>
<text text-anchor="start" x="99" y="-552.4" font-family="Source Code Pro" font-size="12.00" fill="blue">0x40428c &#160;push 0x0</text>
<text text-anchor="start" x="99" y="-539.4" font-family="Source Code Pro" font-size="12.00">0x40428e &#160;push eax</text>
<text text-anchor="start" x="99" y="-526.4" font-family="Source Code Pro" font-size="12.00">0x40428f &#160;push ebx</text>
<text text-anchor="start" x="99" y="-513.4" font-family="Source Code Pro" font-size="12.00">0x404290 &#160;push ecx</text>
<text text-anchor="start" x="99" y="-500.4" font-family="Source Code Pro" font-size="12.00">0x404291 &#160;push edx</text>
<text text-anchor="start" x="99" y="-487.4" font-family="Source Code Pro" font-size="12.00" fill="cornflowerblue">0x404292 &#160;lahf</text>
<text text-anchor="start" x="99" y="-474.4" font-family="Source Code Pro" font-size="12.00">0x404293 &#160;mov ecx, dword ptr [0x40405a]</text>
<text text-anchor="start" x="99" y="-461.4" font-family="Source Code Pro" font-size="12.00">0x404299 &#160;movzx edx, byte ptr [ecx+0x5]</text>
<text text-anchor="start" x="99" y="-448.4" font-family="Source Code Pro" font-size="12.00" fill="purple">0x40429d &#160;mov ebx, dword ptr [ecx+0x6]</text>
<text text-anchor="start" x="99" y="-435.4" font-family="Source Code Pro" font-size="12.00">0x4042a0 &#160;push eax</text>
<text text-anchor="start" x="99" y="-422.4" font-family="Source Code Pro" font-size="12.00">0x4042a1 &#160;cmp edx, 0x0</text>
<text text-anchor="start" x="99" y="-409.4" font-family="Source Code Pro" font-size="12.00">0x4042a4 &#160;jz 0x4042bc</text>
<text text-anchor="start" x="99" y="-396.4" font-family="Source Code Pro" font-size="12.00">0x4042a6 &#160;mov ecx, edx</text>
<text text-anchor="start" x="99" y="-383.4" font-family="Source Code Pro" font-size="12.00">0x4042a8 &#160;shr ecx, 0x1</text>
<text text-anchor="start" x="99" y="-370.4" font-family="Source Code Pro" font-size="12.00">0x4042aa &#160;and edx, 0x1</text>
<text text-anchor="start" x="99" y="-357.4" font-family="Source Code Pro" font-size="12.00" fill="cornflowerblue">0x4042ad &#160;shr eax, cl</text>
<text text-anchor="start" x="99" y="-344.4" font-family="Source Code Pro" font-size="12.00" fill="cornflowerblue">0x4042af &#160;and eax, 0x1</text>
<text text-anchor="start" x="99" y="-331.4" font-family="Source Code Pro" font-size="12.00">0x4042b2 &#160;cmp al, dl</text>
<text text-anchor="start" x="99" y="-318.4" font-family="Source Code Pro" font-size="12.00">0x4042b4 &#160;jz 0x4042bc</text>
</g>
<!-- 1 -->
<g id="node2" class="node"><title>1</title>
<path fill="none" stroke="black" d="M297,-275C297,-275 12,-275 12,-275 6,-275 0,-269 0,-263 0,-263 0,-251 0,-251 0,-245 6,-239 12,-239 12,-239 297,-239 297,-239 303,-239 309,-245 309,-251 309,-251 309,-263 309,-263 309,-269 303,-275 297,-275"/>
<text text-anchor="start" x="8" y="-253.9" font-family="Source Code Pro" font-size="12.00" fill="purple">0x4042b6 &#160;mov ebx, dword ptr [0x404056]</text>
</g>
<!-- 0&#45;&gt;1 -->
<g id="edge1" class="edge"><title>0&#45;&gt;1</title>
<path fill="none" stroke="black" d="M181.311,-310.885C176.348,-301.095 171.744,-292.014 167.801,-284.237"/>
<polygon fill="black" stroke="black" points="170.828,-282.467 163.184,-275.13 164.584,-285.632 170.828,-282.467"/>
</g>
<!-- 2 -->
<g id="node3" class="node"><title>2</title>
<path fill="none" stroke="black" d="M388,-203C388,-203 103,-203 103,-203 97,-203 91,-197 91,-191 91,-191 91,-12 91,-12 91,-6 97,-0 103,-0 103,-0 388,-0 388,-0 394,-0 400,-6 400,-12 400,-12 400,-191 400,-191 400,-197 394,-203 388,-203"/>
<text text-anchor="start" x="99" y="-189.4" font-family="Source Code Pro" font-size="12.00">0x4042bc &#160;mov dword ptr [0x404052], ebx</text>
<text text-anchor="start" x="99" y="-176.4" font-family="Source Code Pro" font-size="12.00" fill="blue">0x4042c2 &#160;mov dword ptr [esp+0x14], ebx</text>
<text text-anchor="start" x="99" y="-163.4" font-family="Source Code Pro" font-size="12.00" fill="orange">0x4042c6 &#160;call 0x404276</text>
<text text-anchor="start" x="99" y="-150.4" font-family="Source Code Pro" font-size="12.00">0x4042cb &#160;push 0x40405e</text>
<text text-anchor="start" x="99" y="-137.4" font-family="Source Code Pro" font-size="12.00">0x4042d0 &#160;push edx</text>
<text text-anchor="start" x="99" y="-124.4" font-family="Source Code Pro" font-size="12.00">0x4042d1 &#160;push ecx</text>
<text text-anchor="start" x="99" y="-111.4" font-family="Source Code Pro" font-size="12.00" fill="orange">0x4042d2 &#160;call 0x4042e1</text>
<text text-anchor="start" x="99" y="-98.4" font-family="Source Code Pro" font-size="12.00">0x4042d7 &#160;add esp, 0xc</text>
<text text-anchor="start" x="99" y="-85.4" font-family="Source Code Pro" font-size="12.00">0x4042da &#160;pop eax</text>
<text text-anchor="start" x="99" y="-72.4" font-family="Source Code Pro" font-size="12.00">0x4042db &#160;sahf </text>
<text text-anchor="start" x="99" y="-59.4" font-family="Source Code Pro" font-size="12.00">0x4042dc &#160;pop edx</text>
<text text-anchor="start" x="99" y="-46.4" font-family="Source Code Pro" font-size="12.00">0x4042dd &#160;pop ecx</text>
<text text-anchor="start" x="99" y="-33.4" font-family="Source Code Pro" font-size="12.00">0x4042de &#160;pop ebx</text>
<text text-anchor="start" x="99" y="-20.4" font-family="Source Code Pro" font-size="12.00">0x4042df &#160;pop eax</text>
<text text-anchor="start" x="99" y="-7.4" font-family="Source Code Pro" font-size="12.00">0x4042e0 &#160;ret </text>
</g>
<!-- 0&#45;&gt;2 -->
<g id="edge2" class="edge"><title>0&#45;&gt;2</title>
<path fill="none" stroke="black" d="M316.11,-310.892C322.377,-287.273 324.413,-262.596 318.5,-239 316.293,-230.194 313.398,-221.335 310.033,-212.591"/>
<polygon fill="black" stroke="black" points="313.209,-211.108 306.21,-203.155 306.722,-213.737 313.209,-211.108"/>
</g>
<!-- 1&#45;&gt;2 -->
<g id="edge3" class="edge"><title>1&#45;&gt;2</title>
<path fill="none" stroke="black" d="M164.586,-238.986C168.961,-231.607 174.478,-222.301 180.567,-212.029"/>
<polygon fill="black" stroke="black" points="183.715,-213.583 185.804,-203.196 177.694,-210.013 183.715,-213.583"/>
</g>
</g>
</svg>
